<svg xmlns="http://www.w3.org/2000/svg" version="1.1" width="460.00000000000006" height="80" viewBox="0 0 460.00000000000006 80"><defs/><path fill="none" stroke="#000000" d="M 449.45,45.6 C 449.8,43.5 453.65,40.35 454.7,40 C 453.65,39.65 449.8,36.5 449.45,34.4" transform="" style="stroke-width: 2px;stroke-linejoin: round;stroke-linecap: round" stroke-width="2" stroke-linejoin="round" stroke-linecap="round"/><path fill="none" stroke="#000000" d="M 5,40 S 5,40 453.95,40" style="stroke-width: 2px" stroke-width="2"/><path fill="none" stroke="#000000" d="M 1.55,45.6 C 1.9,43.5 5.75,40.35 6.8,40 C 5.75,39.65 1.9,36.5 1.55,34.4" transform="rotate(180 6.800000000000068 40)" style="stroke-width: 2px;stroke-linejoin: round;stroke-linecap: round" stroke-width="2" stroke-linejoin="round" stroke-linecap="round"/><path fill="none" stroke="#000000" d="M 455,40 S 455,40 6.05,40" style="stroke-width: 2px" stroke-width="2"/><path fill="none" stroke="#000000" d="M 30,48 L 30,32" style="stroke-width: 2px" stroke-width="2"/><path fill="none" stroke="#000000" d="M 58.5714,48 L 58.5714,32" style="stroke-width: 2px" stroke-width="2"/><path fill="none" stroke="#000000" d="M 87.1429,48 L 87.1429,32" style="stroke-width: 2px" stroke-width="2"/><path fill="none" stroke="#000000" d="M 115.714,48 L 115.714,32" style="stroke-width: 2px" stroke-width="2"/><path fill="none" stroke="#000000" d="M 144.286,48 L 144.286,32" style="stroke-width: 2px" stroke-width="2"/><path fill="none" stroke="#000000" d="M 172.857,48 L 172.857,32" style="stroke-width: 2px" stroke-width="2"/><path fill="none" stroke="#000000" d="M 201.429,48 L 201.429,32" style="stroke-width: 2px" stroke-width="2"/><path fill="none" stroke="#000000" d="M 230,48 L 230,32" style="stroke-width: 2px" stroke-width="2"/><path fill="none" stroke="#000000" d="M 258.571,48 L 258.571,32" style="stroke-width: 2px" stroke-width="2"/><path fill="none" stroke="#000000" d="M 287.143,48 L 287.143,32" style="stroke-width: 2px" stroke-width="2"/><path fill="none" stroke="#000000" d="M 315.714,48 L 315.714,32" style="stroke-width: 2px" stroke-width="2"/><path fill="none" stroke="#000000" d="M 344.286,48 L 344.286,32" style="stroke-width: 2px" stroke-width="2"/><path fill="none" stroke="#000000" d="M 372.857,48 L 372.857,32" style="stroke-width: 2px" stroke-width="2"/><path fill="none" stroke="#000000" d="M 401.429,48 L 401.429,32" style="stroke-width: 2px" stroke-width="2"/><path fill="none" stroke="#000000" d="M 430,48 L 430,32" style="stroke-width: 2px" stroke-width="2"/><path fill="none" stroke="#11accd" d="M -1.25001,48 C -0.750007,45 4.74999,40.5 6.24999,40 C 4.74999,39.5 -0.750007,35 -1.25001,32" transform="rotate(180 6.2499934605189935 40)" style="stroke-width: 3.5px;stroke-linejoin: round;stroke-linecap: round" stroke-width="3.5" stroke-linejoin="round" stroke-linecap="round"/><path fill="none" stroke="#11accd" d="M 144.286,40 S 144.286,40 5.49999,40" style="stroke-width: 3.5px" stroke-width="3.5"/><path fill="none" stroke="#ca337c" d="M 250.321,48 C 250.821,45 256.321,40.5 257.821,40 C 256.321,39.5 250.821,35 250.321,32" transform="" style="stroke-width: 3.5px;stroke-linejoin: round;stroke-linecap: round" stroke-width="3.5" stroke-linejoin="round" stroke-linecap="round"/><path fill="none" stroke="#ca337c" d="M 144.286,40 S 144.286,40 257.071,40" style="stroke-width: 3.5px" stroke-width="3.5"/><path fill="none" stroke="#ca337c" d="M 139.036,48 C 139.536,45 145.036,40.5 146.536,40 C 145.036,39.5 139.536,35 139.036,32" transform="rotate(180 146.5357077462333 40)" style="stroke-width: 3.5px;stroke-linejoin: round;stroke-linecap: round" stroke-width="3.5" stroke-linejoin="round" stroke-linecap="round"/><path fill="none" stroke="#ca337c" d="M 258.571,40 S 258.571,40 145.786,40" style="stroke-width: 3.5px" stroke-width="3.5"/><path fill="none" stroke="#1fab54" d="M 447.75,48 C 448.25,45 453.75,40.5 455.25,40 C 453.75,39.5 448.25,35 447.75,32" transform="" style="stroke-width: 3.5px;stroke-linejoin: round;stroke-linecap: round" stroke-width="3.5" stroke-linejoin="round" stroke-linecap="round"/><path fill="none" stroke="#1fab54" d="M 258.571,40 S 258.571,40 454.5,40" style="stroke-width: 3.5px" stroke-width="3.5"/><ellipse cx="144.2857142857143" cy="40" rx="5" ry="5" fill="#000000" stroke="none" style="stroke-width: 2px" stroke-width="2"/><ellipse cx="258.5714285714286" cy="40" rx="5" ry="5" fill="#000000" stroke="none" style="stroke-width: 2px" stroke-width="2"/></svg>