<?xml version="1.0" encoding="UTF-8" standalone="no"?>
<!DOCTYPE svg PUBLIC "-//W3C//DTD SVG 1.1//EN" "http://www.w3.org/Graphics/SVG/1.1/DTD/svg11.dtd">
<svg xmlns="http://www.w3.org/2000/svg" xmlns:xlink="http://www.w3.org/1999/xlink" version="1.1" width="194.67pt" height="181.131pt" viewBox="0 0 194.67 181.131">
<path transform="matrix(1,0,0,-1,.199,181.131)" stroke-width=".19925" stroke-linecap="butt" stroke-miterlimit="10" stroke-linejoin="miter" fill="none" stroke="#929292" d="M 42.49742 38.22343 L 42.49742 42.47557 M 163.91867 38.22343 L 163.91867 42.47557 "/>
<path transform="matrix(1,0,0,-1,.199,181.131)" stroke-width=".3985" stroke-linecap="butt" stroke-miterlimit="10" stroke-linejoin="miter" fill="none" stroke="#000000" d="M 0 40.3495 L 192.28145 40.3495 "/>
<path transform="matrix(1,0,0,-1,192.48046,140.7815)" d="M 1.99252 0 L -1.19551 1.59401 L 0 0 L -1.19551 -1.59401 "/>
<clipPath id="cp0">
<path transform="matrix(1,0,0,-1,.199,181.131)" d="M 0 0 L 194.27399 0 L 194.27399 161.39646 L 0 161.39646 Z "/>
</clipPath>
<g clip-path="url(#cp0)">
<path transform="matrix(1,0,0,-1,.199,181.131)" d="M 42.49742 94.1478 L 43.72383 96.2559 L 44.95026 98.235 L 46.17667 100.08769 L 47.4031 101.81662 L 48.62953 103.4245 L 49.85594 104.91393 L 51.08237 106.2876 L 52.30878 107.54819 L 53.5352 108.69833 L 54.76163 109.74069 L 55.98804 110.67793 L 57.21446 111.51274 L 58.44089 112.24774 L 59.6673 112.8856 L 60.89374 113.429 L 62.12016 113.8806 L 63.34657 114.24304 L 64.573 114.51898 L 65.79941 114.7111 L 67.02583 114.82207 L 68.25226 114.8545 L 69.47867 114.81113 L 70.7051 114.69453 L 71.93152 114.50745 L 73.15794 114.25249 L 74.38437 113.93233 L 75.6108 113.54962 L 76.8372 113.10704 L 78.06363 112.60725 L 79.29004 112.05289 L 80.51646 111.44666 L 81.74289 110.79115 L 82.9693 110.08911 L 84.19572 109.34314 L 85.42216 108.55592 L 86.64857 107.7301 L 87.875 106.86836 L 89.10143 105.97336 L 90.32784 105.04774 L 91.55426 104.09418 L 92.78067 103.11533 L 94.0071 102.11386 L 95.23352 101.09242 L 96.45993 100.05368 L 97.68636 99.00029 L 98.9128 97.93494 L 100.1392 96.86024 L 101.36563 95.77892 L 102.59204 94.69359 L 103.81847 93.60692 L 105.04489 92.52158 L 106.2713 91.4402 L 107.49773 90.3655 L 108.72415 89.30008 L 109.95056 88.24664 L 111.177 87.20782 L 112.40343 86.1863 L 113.62984 85.18474 L 114.85626 84.20578 L 116.08267 83.25209 L 117.3091 82.32634 L 118.53552 81.43118 L 119.76193 80.56929 L 120.98836 79.7433 L 122.21478 78.9559 L 123.44121 78.20975 L 124.66763 77.50749 L 125.89406 76.85179 L 127.12047 76.2453 L 128.3469 75.6907 L 129.5733 75.19066 L 130.79973 74.74782 L 132.02616 74.36484 L 133.25257 74.04439 L 134.47899 73.78912 L 135.70543 73.60172 L 136.93184 73.4848 L 138.15827 73.44107 L 139.38469 73.47318 L 140.6111 73.58379 L 141.83753 73.77553 L 143.06394 74.05109 L 144.29036 74.41313 L 145.51679 74.86429 L 146.7432 75.40727 L 147.96962 76.04471 L 149.19606 76.77927 L 150.42247 77.61362 L 151.6489 78.5504 L 152.87532 79.59227 L 154.10173 80.74193 L 155.32816 82.002 L 156.55457 83.37514 L 157.78099 84.86404 L 159.00742 86.47137 L 160.23383 88.19975 L 161.46027 90.05188 L 162.68669 92.03038 L 163.9131 94.13794 L 163.9131 40.3495 L 162.68669 40.3495 L 161.46027 40.3495 L 160.23383 40.3495 L 159.00742 40.3495 L 157.78099 40.3495 L 156.55457 40.3495 L 155.32816 40.3495 L 154.10173 40.3495 L 152.87532 40.3495 L 151.6489 40.3495 L 150.42247 40.3495 L 149.19606 40.3495 L 147.96962 40.3495 L 146.7432 40.3495 L 145.51679 40.3495 L 144.29036 40.3495 L 143.06394 40.3495 L 141.83753 40.3495 L 140.6111 40.3495 L 139.38469 40.3495 L 138.15827 40.3495 L 136.93184 40.3495 L 135.70543 40.3495 L 134.47899 40.3495 L 133.25257 40.3495 L 132.02616 40.3495 L 130.79973 40.3495 L 129.5733 40.3495 L 128.3469 40.3495 L 127.12047 40.3495 L 125.89406 40.3495 L 124.66763 40.3495 L 123.44121 40.3495 L 122.21478 40.3495 L 120.98836 40.3495 L 119.76193 40.3495 L 118.53552 40.3495 L 117.3091 40.3495 L 116.08267 40.3495 L 114.85626 40.3495 L 113.62984 40.3495 L 112.40343 40.3495 L 111.177 40.3495 L 109.95056 40.3495 L 108.72415 40.3495 L 107.49773 40.3495 L 106.2713 40.3495 L 105.04489 40.3495 L 103.81847 40.3495 L 102.59204 40.3495 L 101.36563 40.3495 L 100.1392 40.3495 L 98.9128 40.3495 L 97.68636 40.3495 L 96.45993 40.3495 L 95.23352 40.3495 L 94.0071 40.3495 L 92.78067 40.3495 L 91.55426 40.3495 L 90.32784 40.3495 L 89.10143 40.3495 L 87.875 40.3495 L 86.64857 40.3495 L 85.42216 40.3495 L 84.19572 40.3495 L 82.9693 40.3495 L 81.74289 40.3495 L 80.51646 40.3495 L 79.29004 40.3495 L 78.06363 40.3495 L 76.8372 40.3495 L 75.6108 40.3495 L 74.38437 40.3495 L 73.15794 40.3495 L 71.93152 40.3495 L 70.7051 40.3495 L 69.47867 40.3495 L 68.25226 40.3495 L 67.02583 40.3495 L 65.79941 40.3495 L 64.573 40.3495 L 63.34657 40.3495 L 62.12016 40.3495 L 60.89374 40.3495 L 59.6673 40.3495 L 58.44089 40.3495 L 57.21446 40.3495 L 55.98804 40.3495 L 54.76163 40.3495 L 53.5352 40.3495 L 52.30878 40.3495 L 51.08237 40.3495 L 49.85594 40.3495 L 48.62953 40.3495 L 47.4031 40.3495 L 46.17667 40.3495 L 44.95026 40.3495 L 43.72383 40.3495 L 42.49742 40.3495 Z " fill="#e6e6ff"/>
</g>
<symbol id="font_1_4">
<path d="M .305 .31300003 C .311 .33900003 .334 .43100003 .404 .43100003 C .409 .43100003 .433 .43100003 .454 .418 C .426 .41300003 .40600003 .388 .40600003 .36400003 C .40600003 .34800003 .417 .32900004 .444 .32900004 C .46600003 .32900004 .498 .34700004 .498 .38700003 C .498 .43900005 .439 .45300005 .405 .45300005 C .347 .45300005 .312 .40000005 .3 .37700004 C .275 .44300003 .221 .45300005 .19200002 .45300005 C .08800001 .45300005 .031000002 .32400004 .031000002 .29900003 C .031000002 .28900004 .041 .28900004 .043000007 .28900004 C .051000008 .28900004 .054000006 .291 .056 .3 C .09 .40600003 .156 .43100003 .19000001 .43100003 C .209 .43100003 .244 .42200003 .244 .36400003 C .244 .33300004 .22700002 .26600004 .19000001 .126 C .17400001 .064 .13900002 .022000002 .095000009 .022000002 C .08900001 .022000002 .06600001 .022000002 .045 .035 C .07000001 .040000004 .09200001 .061 .09200001 .089 C .09200001 .116000007 .07000001 .124000009 .055000009 .124000009 C .025 .124000009 0 .098000008 0 .06600001 C 0 .020000002 .050000006 0 .094000007 0 C .16000001 0 .19600001 .07000001 .19900002 .076000008 C .21100001 .039 .24700003 0 .307 0 C .41 0 .467 .12900001 .467 .15400002 C .467 .16400002 .458 .16400002 .455 .16400002 C .446 .16400002 .444 .16000001 .442 .15300001 C .409 .046 .341 .022000002 .30900003 .022000002 C .27 .022000002 .254 .054 .254 .08800001 C .254 .11000001 .26 .13200002 .271 .17600002 L .305 .31300003 Z "/>
</symbol>
<use xlink:href="#font_1_4" transform="matrix(9.9626,0,0,-9.9626,30.862915,150.82659)"/>
<symbol id="font_2_3">
<path d="M .63100007 .19400002 C .646 .19400002 .665 .19400002 .665 .214 C .665 .23400001 .646 .23400001 .632 .23400001 L .033 .23400001 C .019000002 .23400001 0 .23400001 0 .214 C 0 .19400002 .019000002 .19400002 .034 .19400002 L .63100007 .19400002 M .632 0 C .646 0 .665 0 .665 .02000001 C .665 .040000008 .646 .040000008 .63100007 .040000008 L .034 .040000008 C .019000002 .040000008 0 .040000008 0 .02000001 C 0 0 .019000002 0 .033 0 L .632 0 Z "/>
</symbol>
<use xlink:href="#font_2_3" transform="matrix(9.9626,0,0,-9.9626,39.593908,149.39197)"/>
<symbol id="font_1_1">
<path d="M .33300004 .38900004 C .31500004 .42600004 .286 .45300005 .24100001 .45300005 C .124 .45300005 0 .30600003 0 .16000001 C 0 .06600001 .055000005 0 .133 0 C .153 0 .20300001 .0040000008 .263 .075 C .27100004 .033000005 .30600003 0 .35400004 0 C .38900004 0 .41200004 .023000002 .42800004 .055000005 C .44500003 .091000009 .45800004 .15200001 .45800004 .15400002 C .45800004 .16400002 .44900004 .16400002 .44600005 .16400002 C .43600003 .16400002 .43500004 .16000001 .43200005 .14600002 C .41500003 .081 .397 .022000002 .35600005 .022000002 C .32900004 .022000002 .32600004 .048 .32600004 .068 C .32600004 .09 .32800005 .098000008 .33900003 .14200002 C .35000003 .18400002 .35200004 .19400002 .36100004 .23200003 L .397 .37200005 C .40400005 .40000005 .40400005 .40200005 .40400005 .40600003 C .40400005 .42300005 .39200003 .43300004 .37500004 .43300004 C .35100005 .43300004 .33600004 .411 .33300004 .38900004 M .26800005 .13000001 C .263 .112 .263 .11000001 .24800001 .093 C .20400001 .038000004 .163 .022000002 .135 .022000002 C .08499999 .022000002 .07100001 .077 .07100001 .116000007 C .07100001 .16600001 .103 .28900004 .126 .335 C .157 .39400003 .202 .43100003 .242 .43100003 C .307 .43100003 .32100005 .34900005 .32100005 .34300003 C .32100005 .337 .31900005 .33100004 .31800003 .32600004 L .26800005 .13000001 Z "/>
</symbol>
<use xlink:href="#font_1_1" transform="matrix(9.9626,0,0,-9.9626,49.9505,150.82659)"/>
<use xlink:href="#font_1_4" transform="matrix(9.9626,0,0,-9.9626,152.77791,153.45558)"/>
<use xlink:href="#font_2_3" transform="matrix(9.9626,0,0,-9.9626,161.50891,152.02097)"/>
<symbol id="font_1_2">
<path d="M .192 .694 C .192 .695 .192 .705 .179 .705 C .156 .705 .083000008 .697 .057 .695 C .049 .694 .038 .693 .038 .675 C .038 .663 .047000003 .663 .062000004 .663 C .11 .663 .112 .656 .112 .646 C .112 .639 .103 .605 .098000008 .584 L .015999999 .25800003 C .0040000008 .20800002 0 .19200002 0 .15700002 C 0 .062000004 .053 0 .127 0 C .24500002 0 .36800004 .14900002 .36800004 .293 C .36800004 .38400004 .31500004 .45300005 .235 .45300005 C .18900001 .45300005 .148 .42400003 .118 .39300005 L .192 .694 M .098000008 .316 C .104 .33800004 .104 .34000004 .113000009 .351 C .162 .41600005 .207 .43100003 .233 .43100003 C .26900003 .43100003 .29600004 .40100003 .29600004 .337 C .29600004 .27800004 .263 .16300002 .24500002 .12500002 C .212 .058000003 .16600001 .022000002 .127 .022000002 C .092999998 .022000002 .060000007 .049000004 .060000007 .123 C .060000007 .14200002 .060000007 .16100002 .076000008 .22400002 L .098000008 .316 Z "/>
</symbol>
<use xlink:href="#font_1_2" transform="matrix(9.9626,0,0,-9.9626,171.93526,153.45558)"/>
<clipPath id="cp3">
<path transform="matrix(1,0,0,-1,.199,181.131)" d="M 0 0 L 194.27399 0 L 194.27399 161.39646 L 0 161.39646 Z "/>
</clipPath>
<g clip-path="url(#cp3)">
<path transform="matrix(1,0,0,-1,.199,181.131)" stroke-width=".79701" stroke-linecap="butt" stroke-miterlimit="10" stroke-linejoin="miter" fill="none" stroke="#000000" d="M 42.49742 94.1478 L 43.72383 96.2559 L 44.95026 98.235 L 46.17667 100.08769 L 47.4031 101.81662 L 48.62953 103.4245 L 49.85594 104.91393 L 51.08237 106.2876 L 52.30878 107.54819 L 53.5352 108.69833 L 54.76163 109.74069 L 55.98804 110.67793 L 57.21446 111.51274 L 58.44089 112.24774 L 59.6673 112.8856 L 60.89374 113.429 L 62.12016 113.8806 L 63.34657 114.24304 L 64.573 114.51898 L 65.79941 114.7111 L 67.02583 114.82207 L 68.25226 114.8545 L 69.47867 114.81113 L 70.7051 114.69453 L 71.93152 114.50745 L 73.15794 114.25249 L 74.38437 113.93233 L 75.6108 113.54962 L 76.8372 113.10704 L 78.06363 112.60725 L 79.29004 112.05289 L 80.51646 111.44666 L 81.74289 110.79115 L 82.9693 110.08911 L 84.19572 109.34314 L 85.42216 108.55592 L 86.64857 107.7301 L 87.875 106.86836 L 89.10143 105.97336 L 90.32784 105.04774 L 91.55426 104.09418 L 92.78067 103.11533 L 94.0071 102.11386 L 95.23352 101.09242 L 96.45993 100.05368 L 97.68636 99.00029 L 98.9128 97.93494 L 100.1392 96.86024 L 101.36563 95.77892 L 102.59204 94.69359 L 103.81847 93.60692 L 105.04489 92.52158 L 106.2713 91.4402 L 107.49773 90.3655 L 108.72415 89.30008 L 109.95056 88.24664 L 111.177 87.20782 L 112.40343 86.1863 L 113.62984 85.18474 L 114.85626 84.20578 L 116.08267 83.25209 L 117.3091 82.32634 L 118.53552 81.43118 L 119.76193 80.56929 L 120.98836 79.7433 L 122.21478 78.9559 L 123.44121 78.20975 L 124.66763 77.50749 L 125.89406 76.85179 L 127.12047 76.2453 L 128.3469 75.6907 L 129.5733 75.19066 L 130.79973 74.74782 L 132.02616 74.36484 L 133.25257 74.04439 L 134.47899 73.78912 L 135.70543 73.60172 L 136.93184 73.4848 L 138.15827 73.44107 L 139.38469 73.47318 L 140.6111 73.58379 L 141.83753 73.77553 L 143.06394 74.05109 L 144.29036 74.41313 L 145.51679 74.86429 L 146.7432 75.40727 L 147.96962 76.04471 L 149.19606 76.77927 L 150.42247 77.61362 L 151.6489 78.5504 L 152.87532 79.59227 L 154.10173 80.74193 L 155.32816 82.002 L 156.55457 83.37514 L 157.78099 84.86404 L 159.00742 86.47137 L 160.23383 88.19975 L 161.46027 90.05188 L 162.68669 92.03038 L 163.9131 94.13794 "/>
<path transform="matrix(1,0,0,-1,.199,181.131)" stroke-width=".3985" stroke-linecap="butt" stroke-miterlimit="10" stroke-linejoin="miter" fill="none" stroke="#000000" d="M 42.49742 40.3495 L 43.72383 40.3495 L 44.95026 40.3495 L 46.17667 40.3495 L 47.4031 40.3495 L 48.62953 40.3495 L 49.85594 40.3495 L 51.08237 40.3495 L 52.30878 40.3495 L 53.5352 40.3495 L 54.76163 40.3495 L 55.98804 40.3495 L 57.21446 40.3495 L 58.44089 40.3495 L 59.6673 40.3495 L 60.89374 40.3495 L 62.12016 40.3495 L 63.34657 40.3495 L 64.573 40.3495 L 65.79941 40.3495 L 67.02583 40.3495 L 68.25226 40.3495 L 69.47867 40.3495 L 70.7051 40.3495 L 71.93152 40.3495 L 73.15794 40.3495 L 74.38437 40.3495 L 75.6108 40.3495 L 76.8372 40.3495 L 78.06363 40.3495 L 79.29004 40.3495 L 80.51646 40.3495 L 81.74289 40.3495 L 82.9693 40.3495 L 84.19572 40.3495 L 85.42216 40.3495 L 86.64857 40.3495 L 87.875 40.3495 L 89.10143 40.3495 L 90.32784 40.3495 L 91.55426 40.3495 L 92.78067 40.3495 L 94.0071 40.3495 L 95.23352 40.3495 L 96.45993 40.3495 L 97.68636 40.3495 L 98.9128 40.3495 L 100.1392 40.3495 L 101.36563 40.3495 L 102.59204 40.3495 L 103.81847 40.3495 L 105.04489 40.3495 L 106.2713 40.3495 L 107.49773 40.3495 L 108.72415 40.3495 L 109.95056 40.3495 L 111.177 40.3495 L 112.40343 40.3495 L 113.62984 40.3495 L 114.85626 40.3495 L 116.08267 40.3495 L 117.3091 40.3495 L 118.53552 40.3495 L 119.76193 40.3495 L 120.98836 40.3495 L 122.21478 40.3495 L 123.44121 40.3495 L 124.66763 40.3495 L 125.89406 40.3495 L 127.12047 40.3495 L 128.3469 40.3495 L 129.5733 40.3495 L 130.79973 40.3495 L 132.02616 40.3495 L 133.25257 40.3495 L 134.47899 40.3495 L 135.70543 40.3495 L 136.93184 40.3495 L 138.15827 40.3495 L 139.38469 40.3495 L 140.6111 40.3495 L 141.83753 40.3495 L 143.06394 40.3495 L 144.29036 40.3495 L 145.51679 40.3495 L 146.7432 40.3495 L 147.96962 40.3495 L 149.19606 40.3495 L 150.42247 40.3495 L 151.6489 40.3495 L 152.87532 40.3495 L 154.10173 40.3495 L 155.32816 40.3495 L 156.55457 40.3495 L 157.78099 40.3495 L 159.00742 40.3495 L 160.23383 40.3495 L 161.46027 40.3495 L 162.68669 40.3495 L 163.9131 40.3495 "/>
<path transform="matrix(1,0,0,-1,.199,181.131)" stroke-width=".79701" stroke-linecap="butt" stroke-miterlimit="10" stroke-linejoin="miter" fill="none" stroke="#000000" d="M 42.49742 40.3495 L 42.49742 94.1478 "/>
<path transform="matrix(1,0,0,-1,.199,181.131)" stroke-width=".79701" stroke-linecap="butt" stroke-miterlimit="10" stroke-linejoin="miter" fill="none" stroke="#000000" d="M 163.91867 40.3495 L 163.91867 94.1478 "/>
<path transform="matrix(1,0,0,-1,.199,181.131)" stroke-width=".3985" stroke-linecap="butt" stroke-miterlimit="10" stroke-linejoin="miter" fill="none" stroke="#000000" d="M 12.14212 15.44289 L 12.14212 145.95355 "/>
<path transform="matrix(0,1,1,0,12.341121,165.68811)" d="M 1.99252 0 L -1.19551 1.59401 L 0 0 L -1.19551 -1.59401 "/>
<path transform="matrix(0,-1,-1,0,12.341121,35.177446)" d="M 1.99252 0 L -1.19551 1.59401 L 0 0 L -1.19551 -1.59401 "/>
<path transform="matrix(1,0,0,-1,.199,181.131)" stroke-width=".3985" stroke-linecap="butt" stroke-miterlimit="10" stroke-linejoin="miter" fill="none" stroke="#000000" d="M 1.99252 40.3495 L 194.27399 40.3495 "/>
<path transform="matrix(-1,0,0,1,2.19152,140.7815)" d="M 1.99252 0 L -1.19551 1.59401 L 0 0 L -1.19551 -1.59401 "/>
<symbol id="font_2_5">
<path d="M .549 .68 L 0 .68 L 0 .64900007 L .024000004 .64900007 C .101 .64900007 .10300001 .638 .10300001 .60200008 L .10300001 .078 C .10300001 .042000005 .101 .031000002 .024000004 .031000002 L 0 .031000002 L 0 0 C .035000005 .003 .11300001 .003 .15200001 .003 C .19300002 .003 .284 .003 .32000003 0 L .32000003 .031000002 L .28700004 .031000002 C .192 .031000002 .192 .044000005 .192 .079 L .192 .32500003 L .27800004 .32500003 C .374 .32500003 .38400004 .293 .38400004 .208 L .40900005 .208 L .40900005 .47300003 L .38400004 .47300003 C .38400004 .38900004 .374 .356 .27800004 .356 L .192 .356 L .192 .609 C .192 .642 .194 .64900007 .24100003 .64900007 L .36100004 .64900007 C .51100006 .64900007 .536 .59300008 .55200007 .455 L .577 .455 L .549 .68 Z "/>
</symbol>
<symbol id="font_2_f">
<path d="M .144 .44200004 L .0040000008 .43100003 L .0040000008 .4 C .069000009 .4 .07800001 .39400003 .07800001 .34500004 L .07800001 .076000008 C .07800001 .031000002 .067 .031000002 0 .031000002 L 0 0 C .032000007 .001 .086 .003 .11000001 .003 C .14500001 .003 .18 .001 .21400002 0 L .21400002 .031000002 C .148 .031000002 .144 .036000004 .144 .075 L .144 .44200004 M .148 .61600008 C .148 .648 .123 .669 .095000009 .669 C .064 .669 .042000005 .642 .042000005 .61600008 C .042000005 .58900007 .064 .563 .095000009 .563 C .123 .563 .148 .58400008 .148 .61600008 Z "/>
</symbol>
<symbol id="font_2_12">
<path d="M .07800001 .344 L .07800001 .076000008 C .07800001 .031000002 .067 .031000002 0 .031000002 L 0 0 C .035 .001 .08600001 .003 .113000009 .003 C .139 .003 .191 .001 .225 0 L .225 .031000002 C .158 .031000002 .147 .031000002 .147 .076000008 L .147 .26000003 C .147 .36400003 .218 .42000003 .282 .42000003 C .345 .42000003 .356 .36600004 .356 .30900003 L .356 .076000008 C .356 .031000002 .345 .031000002 .278 .031000002 L .278 0 C .31300003 .001 .36400003 .003 .391 .003 C .41700004 .003 .46900005 .001 .503 0 L .503 .031000002 C .451 .031000002 .42600004 .031000002 .425 .061000006 L .425 .252 C .425 .33800004 .425 .36900003 .39400003 .40500004 C .38000003 .42200003 .347 .44200004 .289 .44200004 C .216 .44200004 .169 .39900003 .141 .337 L .141 .44200004 L 0 .43100003 L 0 .4 C .07000001 .4 .07800001 .393 .07800001 .344 Z "/>
</symbol>
<symbol id="font_2_a">
<path d="M .34600003 .06600001 L .34600003 0 L .493 .011000001 L .493 .042000005 C .423 .042000005 .41500003 .049000004 .41500003 .098000008 L .41500003 .705 L .271 .694 L .271 .663 C .34100003 .663 .349 .656 .349 .607 L .349 .39100004 C .32 .42700003 .277 .45300005 .22299999 .45300005 C .10500001 .45300005 0 .35500003 0 .22600001 C 0 .09900001 .098 0 .21200001 0 C .276 0 .321 .034 .34600003 .06600001 M .34600003 .33400003 L .34600003 .12900001 C .34600003 .111 .34600003 .109000008 .335 .092 C .305 .044 .26 .022000002 .21700001 .022000002 C .17200002 .022000002 .136 .048 .11200001 .086 C .086 .127 .083000008 .18400002 .083000008 .22500003 C .083000008 .26200003 .085 .32200004 .114 .367 C .13500002 .39800004 .17300001 .43100003 .227 .43100003 C .262 .43100003 .30400003 .41600005 .335 .37100003 C .34600003 .35400004 .34600003 .35200004 .34600003 .33400003 Z "/>
</symbol>
<symbol id="font_2_16">
<path d="M .15400002 .411 L .29700003 .411 L .29700003 .44200004 L .15400002 .44200004 L .15400002 .626 L .12900001 .626 C .12799999 .544 .098000008 .43700005 0 .43300004 L 0 .411 L .085 .411 L .085 .135 C .085 .012000001 .178 0 .21400002 0 C .28500004 0 .31300003 .071 .31300003 .135 L .31300003 .19200002 L .28800003 .19200002 L .28800003 .13700001 C .28800003 .063 .25800003 .025000003 .22100002 .025000003 C .15400002 .025000003 .15400002 .116000007 .15400002 .13300002 L .15400002 .411 Z "/>
</symbol>
<symbol id="font_2_e">
<path d="M .07800001 .076000008 C .07800001 .031000002 .067 .031000002 0 .031000002 L 0 0 C .035 .001 .08600001 .003 .113000009 .003 C .139 .003 .191 .001 .225 0 L .225 .031000002 C .158 .031000002 .147 .031000002 .147 .076000008 L .147 .26000003 C .147 .36400003 .218 .42000003 .282 .42000003 C .345 .42000003 .356 .36600004 .356 .30900003 L .356 .076000008 C .356 .031000002 .345 .031000002 .278 .031000002 L .278 0 C .31300003 .001 .36400003 .003 .391 .003 C .41700004 .003 .46900005 .001 .503 0 L .503 .031000002 C .451 .031000002 .42600004 .031000002 .425 .061000006 L .425 .252 C .425 .33800004 .425 .36900003 .39400003 .40500004 C .38000003 .42200003 .347 .44200004 .289 .44200004 C .20500002 .44200004 .161 .38200004 .14400001 .344 L .14400001 .694 L 0 .683 L 0 .652 C .07000001 .652 .07800001 .64500007 .07800001 .596 L .07800001 .076000008 Z "/>
</symbol>
<symbol id="font_2_b">
<path d="M .08400001 .263 C .09 .41200004 .17400001 .43700005 .20800002 .43700005 C .31100003 .43700005 .321 .30200003 .321 .263 L .08400001 .263 M .083000008 .24200002 L .36200003 .24200002 C .38400004 .24200002 .38700003 .24200002 .38700003 .263 C .38700003 .36200003 .33300004 .45900003 .20800002 .45900003 C .09200001 .45900003 0 .35600005 0 .23100002 C 0 .097 .105000007 0 .22000002 0 C .342 0 .38700003 .111 .38700003 .13000001 C .38700003 .14000002 .379 .14200002 .374 .14200002 C .365 .14200002 .36300005 .136 .36100004 .128 C .326 .025000003 .236 .025000003 .22600001 .025000003 C .17600002 .025000003 .136 .055000005 .113000009 .092 C .083000008 .14000002 .083000008 .20600002 .083000008 .24200002 Z "/>
</symbol>
<symbol id="font_2_8">
<path d="M .291 .087000008 C .29500003 .047000003 .32200004 .005000001 .36900003 .005000001 C .39000003 .005000001 .45100004 .019000002 .45100004 .1 L .45100004 .15600002 L .42600004 .15600002 L .42600004 .1 C .42600004 .042000005 .40100003 .036000004 .39000003 .036000004 C .35700003 .036000004 .35300002 .081 .35300002 .086 L .35300002 .286 C .35300002 .328 .35300002 .367 .31700004 .404 C .27800004 .44300003 .22800002 .45900003 .18 .45900003 C .098 .45900003 .029 .41200004 .029 .34600003 C .029 .316 .049000004 .29900003 .075 .29900003 C .10300001 .29900003 .121 .31900005 .121 .34500004 C .121 .35700003 .116000007 .39000003 .07 .39100004 C .09700001 .42600004 .146 .43700005 .178 .43700005 C .22700003 .43700005 .284 .39800004 .284 .30900003 L .284 .272 C .23300001 .26900003 .16300002 .26600004 .1 .23600002 C .024999999 .20200002 0 .15000002 0 .106000009 C 0 .025000003 .09700001 0 .16 0 C .22600001 0 .272 .040000004 .291 .087000008 M .284 .25100003 L .284 .15100001 C .284 .056 .21200001 .022000002 .167 .022000002 C .11800001 .022000002 .077 .057000005 .077 .107 C .077 .16200002 .11900001 .24500002 .284 .25100003 Z "/>
</symbol>
<symbol id="font_2_14">
<path d="M .13900002 .33200003 L .13900002 .44200004 L 0 .43100003 L 0 .4 C .07000001 .4 .07800001 .393 .07800001 .344 L .07800001 .076000008 C .07800001 .031000002 .067 .031000002 0 .031000002 L 0 0 C .039 .001 .08600001 .003 .11400001 .003 C .15400002 .003 .20100002 .003 .24100003 0 L .24100003 .031000002 L .22000002 .031000002 C .14600002 .031000002 .14400001 .042000005 .14400001 .078 L .14400001 .23200001 C .14400001 .33100004 .18600002 .42000003 .26200003 .42000003 C .26900003 .42000003 .27100004 .42000003 .27300004 .41900004 C .27 .418 .25000004 .40600003 .25000004 .38000003 C .25000004 .35200004 .27100004 .337 .293 .337 C .31100003 .337 .33600004 .349 .33600004 .381 C .33600004 .41300003 .305 .44200004 .26200003 .44200004 C .18900001 .44200004 .15300001 .37500004 .13900002 .33200003 Z "/>
</symbol>
<symbol id="font_2_13">
<path d="M .44300003 .22500003 C .44300003 .35300002 .34300003 .45900003 .222 .45900003 C .097 .45900003 0 .35000003 0 .22500003 C 0 .096 .104 0 .22100002 0 C .342 0 .44300003 .098000008 .44300003 .22500003 M .222 .025000003 C .17900002 .025000003 .135 .046 .10800001 .092 C .083000008 .136 .083000008 .19700001 .083000008 .23300003 C .083000008 .272 .083000008 .32600004 .10700001 .37000004 C .134 .41600005 .18100001 .43700005 .22100002 .43700005 C .26500003 .43700005 .30800004 .41500003 .33400003 .37200005 C .36 .32900004 .36 .27100004 .36 .23300003 C .36 .19700001 .36 .143 .33800004 .09900001 C .316 .054 .272 .025000003 .222 .025000003 Z "/>
</symbol>
<symbol id="font_2_c">
<path d="M .14200002 .43100003 L .14200002 .54700008 C .14200002 .63500007 .19 .683 .23400003 .683 C .23700002 .683 .25200004 .683 .26700003 .67600008 C .25500003 .67200008 .23700002 .65900006 .23700002 .634 C .23700002 .611 .25300003 .591 .28000004 .591 C .30900003 .591 .32400004 .611 .32400004 .63500007 C .32400004 .67200008 .28700004 .70500007 .23400003 .70500007 C .164 .70500007 .079 .652 .079 .546 L .079 .43100003 L 0 .43100003 L 0 .4 L .079 .4 L .079 .076000008 C .079 .031000002 .068 .031000002 .001000002 .031000002 L .001000002 0 C .040000008 .001 .087000008 .003 .115 .003 C .155 .003 .20200002 .003 .24200002 0 L .24200002 .031000002 L .22100002 .031000002 C .14700002 .031000002 .14500001 .042000005 .14500001 .078 L .14500001 .4 L .25900004 .4 L .25900004 .43100003 L .14200002 .43100003 Z "/>
</symbol>
<symbol id="font_2_15">
<path d="M .17500001 .20500002 C .197 .20100002 .279 .18500002 .279 .113000009 C .279 .062000004 .24400002 .022000002 .16600001 .022000002 C .082 .022000002 .046000005 .079 .027000003 .16400002 C .024000004 .17700002 .023000002 .18100001 .013000004 .18100001 C 0 .18100001 0 .17400001 0 .15600002 L 0 .024 C 0 .0070000009 0 0 .011000004 0 C .016000003 0 .017 .0010000002 .036000007 .020000002 C .038000004 .022000002 .038000004 .024 .056 .043 C .1 .0010000002 .14500001 0 .16600001 0 C .28100003 0 .32700003 .067 .32700003 .13900002 C .32700003 .19200002 .29700003 .22200002 .28500004 .23400001 C .25200004 .26600004 .213 .27400003 .171 .28200004 C .115 .293 .048 .30600003 .048 .36400003 C .048 .39900003 .07400001 .44000004 .16 .44000004 C .27 .44000004 .27500005 .35000003 .277 .31900005 C .27800004 .31000004 .28700004 .31000004 .28900004 .31000004 C .30200003 .31000004 .30200003 .31500004 .30200003 .33400003 L .30200003 .43500004 C .30200003 .45200003 .30200003 .45900003 .291 .45900003 C .286 .45900003 .284 .45900003 .27100004 .44700004 C .26800005 .44300003 .25800003 .43400003 .254 .43100003 C .21600002 .45900003 .17500001 .45900003 .16 .45900003 C .038000004 .45900003 0 .39200003 0 .33600004 C 0 .30100004 .016000003 .27300004 .043000007 .25100003 C .075 .22500003 .10300001 .21900001 .17500001 .20500002 Z "/>
</symbol>
<symbol id="font_2_d">
<path d="M .19400002 .37800003 C .10700001 .37800003 .10700001 .47800005 .10700001 .50100007 C .10700001 .52800008 .10800001 .56 .12300001 .58500006 C .13100001 .59700009 .15400002 .62500008 .19400002 .62500008 C .28100003 .62500008 .28100003 .52500006 .28100003 .50200006 C .28100003 .47500003 .28000004 .44300003 .26500003 .41800005 C .25700004 .40600003 .23400003 .37800003 .19400002 .37800003 M .07800001 .33900003 C .07800001 .34300003 .07800001 .36600004 .095 .38600005 C .134 .35800005 .17500001 .35500003 .19400002 .35500003 C .28700004 .35500003 .356 .42400003 .356 .50100007 C .356 .53800007 .34000004 .57500007 .31500004 .59800007 C .351 .632 .38700003 .637 .40500004 .637 C .40700004 .637 .41200004 .637 .41500003 .63600006 C .404 .632 .39900003 .62100008 .39900003 .609 C .39900003 .592 .41200004 .58000007 .42800004 .58000007 C .43800003 .58000007 .45700003 .587 .45700003 .61 C .45700003 .62700006 .44500003 .65900006 .40600003 .65900006 C .38600005 .65900006 .342 .65300008 .3 .61200007 C .25800003 .64500007 .21600002 .64800009 .19400002 .64800009 C .10100001 .64800009 .032 .57900008 .032 .50200006 C .032 .458 .054 .42000003 .07900001 .39900003 C .066 .384 .048000006 .351 .048000006 .316 C .048000006 .28500004 .061 .24700001 .09200001 .22700002 C .032 .21000001 0 .16700001 0 .127 C 0 .055000009 .09900001 0 .22100002 0 C .33900003 0 .44300003 .051000015 .44300003 .12900001 C .44300003 .164 .42900003 .21500002 .37800003 .24300002 C .32500003 .27100004 .26700003 .27100004 .20600002 .27100004 C .18100001 .27100004 .13800001 .27100004 .13100001 .272 C .09900001 .27600003 .07800001 .307 .07800001 .33900003 M .222 .023000002 C .12100001 .023000002 .052000006 .074000019 .052000006 .127 C .052000006 .17300001 .09 .21000001 .134 .21300002 L .19300002 .21300002 C .279 .21300002 .39100004 .21300002 .39100004 .127 C .39100004 .073000017 .32000003 .023000002 .222 .023000002 Z "/>
</symbol>
<use xlink:href="#font_2_5" transform="matrix(9.9626,0,0,-9.9626,28.336766,167.482)"/>
<use xlink:href="#font_2_f" transform="matrix(9.9626,0,0,-9.9626,34.842344,167.482)"/>
<use xlink:href="#font_2_12" transform="matrix(9.9626,0,0,-9.9626,37.601984,167.482)"/>
<use xlink:href="#font_2_a" transform="matrix(9.9626,0,0,-9.9626,43.161119,167.59159)"/>
<use xlink:href="#font_2_16" transform="matrix(9.9626,0,0,-9.9626,51.86843,167.59159)"/>
<use xlink:href="#font_2_e" transform="matrix(9.9626,0,0,-9.9626,55.873395,167.482)"/>
<use xlink:href="#font_2_b" transform="matrix(9.9626,0,0,-9.9626,61.372755,167.59159)"/>
<use xlink:href="#font_2_8" transform="matrix(9.9626,0,0,-9.9626,69.26313,167.59159)"/>
<use xlink:href="#font_2_14" transform="matrix(9.9626,0,0,-9.9626,74.10496,167.482)"/>
<use xlink:href="#font_2_b" transform="matrix(9.9626,0,0,-9.9626,78.0103,167.59159)"/>
<use xlink:href="#font_2_8" transform="matrix(9.9626,0,0,-9.9626,82.573169,167.59159)"/>
<use xlink:href="#font_2_13" transform="matrix(9.9626,0,0,-9.9626,90.73254,167.59159)"/>
<use xlink:href="#font_2_c" transform="matrix(9.9626,0,0,-9.9626,95.76365,167.482)"/>
<use xlink:href="#font_2_16" transform="matrix(9.9626,0,0,-9.9626,101.99027,167.59159)"/>
<use xlink:href="#font_2_e" transform="matrix(9.9626,0,0,-9.9626,105.99523,167.482)"/>
<use xlink:href="#font_2_b" transform="matrix(9.9626,0,0,-9.9626,111.49459,167.59159)"/>
<use xlink:href="#font_2_15" transform="matrix(9.9626,0,0,-9.9626,119.2953,167.59159)"/>
<use xlink:href="#font_2_e" transform="matrix(9.9626,0,0,-9.9626,123.2106,167.482)"/>
<use xlink:href="#font_2_8" transform="matrix(9.9626,0,0,-9.9626,128.84943,167.59159)"/>
<use xlink:href="#font_2_a" transform="matrix(9.9626,0,0,-9.9626,133.75102,167.59159)"/>
<use xlink:href="#font_2_b" transform="matrix(9.9626,0,0,-9.9626,139.22048,167.59159)"/>
<use xlink:href="#font_2_a" transform="matrix(9.9626,0,0,-9.9626,143.71363,167.59159)"/>
<use xlink:href="#font_2_14" transform="matrix(9.9626,0,0,-9.9626,152.51059,167.482)"/>
<use xlink:href="#font_2_b" transform="matrix(9.9626,0,0,-9.9626,156.41593,167.59159)"/>
<use xlink:href="#font_2_d" transform="matrix(9.9626,0,0,-9.9626,160.83933,169.53429)"/>
<use xlink:href="#font_2_f" transform="matrix(9.9626,0,0,-9.9626,165.87044,167.482)"/>
<use xlink:href="#font_2_13" transform="matrix(9.9626,0,0,-9.9626,168.59023,167.59159)"/>
<use xlink:href="#font_2_12" transform="matrix(9.9626,0,0,-9.9626,173.61138,167.482)"/>
<symbol id="font_1_5">
<path d="M .45700003 .586 C .461 .6 .461 .602 .461 .609 C .461 .62700006 .447 .63600006 .432 .63600006 C .42200003 .63600006 .40600003 .63 .397 .615 C .395 .61 .387 .579 .38300003 .561 C .37600003 .535 .36900003 .508 .363 .48100005 L .318 .301 C .314 .286 .271 .21600002 .20500002 .21600002 C .15400002 .21600002 .143 .26000003 .143 .29700003 C .143 .34300003 .16000001 .40500004 .194 .49300004 C .21000001 .53400006 .21400002 .545 .21400002 .56500008 C .21400002 .61 .18200001 .6470001 .13200002 .6470001 C .037 .6470001 0 .50200006 0 .49300004 C 0 .48300005 .01 .48300005 .012 .48300005 C .022000002 .48300005 .023 .485 .028000003 .50100007 C .055000009 .595 .095000009 .625 .12900001 .625 C .13700001 .625 .15400002 .625 .15400002 .59300008 C .15400002 .568 .14400001 .54200008 .13700001 .523 C .097 .41700004 .079 .36 .079 .31300003 C .079 .224 .142 .194 .201 .194 C .24000003 .194 .274 .21100001 .30200003 .23900002 C .289 .187 .277 .13800001 .237 .08500001 C .21100001 .051 .17300001 .022 .127 .022 C .113000009 .022 .068 .025000006 .051000008 .06400001 C .067 .06400001 .080000009 .06400001 .094000007 .076000008 C .104 .08500001 .11400001 .098000008 .11400001 .117000009 C .11400001 .148 .087000008 .15200001 .07700001 .15200001 C .054000006 .15200001 .021 .136 .021 .087000008 C .021 .037 .065000008 0 .127 0 C .23 0 .333 .091000009 .361 .20400001 L .45700003 .586 Z "/>
</symbol>
<use xlink:href="#font_1_5" transform="matrix(9.9626,0,0,-9.9626,96.877918,78.06833)"/>
<use xlink:href="#font_2_3" transform="matrix(9.9626,0,0,-9.9626,105.15591,74.700969)"/>
<symbol id="font_1_3">
<path d="M .314 .605 L .4 .605 C .42000003 .605 .43 .605 .43 .625 C .43 .63600006 .42000003 .63600006 .40300004 .63600006 L .32000003 .63600006 L .34100003 .75 C .34500004 .771 .35900004 .842 .365 .8540001 C .374 .873 .39100004 .888 .41200004 .888 C .416 .888 .44200004 .888 .461 .87 C .41700004 .86600008 .407 .8310001 .407 .816 C .407 .793 .425 .781 .444 .781 C .47 .781 .49900005 .8030001 .49900005 .8410001 C .49900005 .8870001 .45300005 .9100001 .41200004 .9100001 C .37800003 .9100001 .31500004 .8920001 .28500004 .793 C .279 .7720001 .27600003 .7620001 .252 .63600006 L .18300002 .63600006 C .164 .63600006 .15300001 .63600006 .15300001 .61700007 C .15300001 .605 .162 .605 .18100001 .605 L .24700001 .605 L .172 .21000001 C .15400002 .113000009 .13700001 .022 .08500001 .022 C .081 .022 .056 .022 .037 .040000008 C .083000008 .043000014 .09200001 .07900001 .09200001 .094000007 C .09200001 .117000009 .074 .12900001 .055 .12900001 C .029 .12900001 0 .10700001 0 .069000009 C 0 .024000004 .044 0 .08500001 0 C .14 0 .18 .059 .19800002 .09700001 C .23000002 .16000001 .25300003 .28100003 .254 .28800003 L .314 .605 Z "/>
</symbol>
<use xlink:href="#font_1_3" transform="matrix(9.9626,0,0,-9.9626,115.64201,78.06833)"/>
<symbol id="font_2_1">
<path d="M .23200003 .00999999 C .23200003 .012999982 .23200003 .014999986 .215 .03199999 C .09 .15799999 .058 .347 .058 .5 C .058 .674 .096 .84800007 .21900001 .97300007 C .23200003 .985 .23200003 .98700007 .23200003 .99 C .23200003 .99700006 .22800002 1 .222 1 C .21200001 1 .12200001 .93200007 .06299999 .805 C .012000002 .69500008 0 .584 0 .5 C 0 .422 .011 .301 .066 .188 C .126 .065 .21200001 0 .222 0 C .22800002 0 .23200003 .0029999912 .23200003 .00999999 Z "/>
</symbol>
<use xlink:href="#font_2_1" transform="matrix(9.9626,0,0,-9.9626,122.05029,78.51664)"/>
<use xlink:href="#font_1_4" transform="matrix(9.9626,0,0,-9.9626,125.22791,76.13558)"/>
<symbol id="font_2_2">
<path d="M .232 .5 C .232 .578 .22100002 .699 .16600001 .81200006 C .106 .93500009 .020000004 1 .009999998 1 C .0040000008 1 0 .99600008 0 .99 C 0 .98700007 0 .985 .019000002 .967 C .117000009 .86800006 .174 .709 .174 .5 C .174 .329 .137 .153 .012999997 .026999996 C 0 .014999986 0 .012999982 0 .00999999 C 0 .003999993 .0040000008 0 .009999998 0 C .020000004 0 .11000001 .06799999 .169 .195 C .22 .305 .232 .416 .232 .5 Z "/>
</symbol>
<use xlink:href="#font_2_2" transform="matrix(9.9626,0,0,-9.9626,131.20087,78.51664)"/>
<use xlink:href="#font_1_5" transform="matrix(9.9626,0,0,-9.9626,10.008916,31.025336)"/>
</g>
<symbol id="font_2_7">
<path d="M .63 .67700007 L .019000002 .67700007 L 0 .45200003 L .025000003 .45200003 C .039 .61300006 .054 .646 .20500002 .646 C .223 .646 .24900003 .646 .259 .64400008 C .28 .64000007 .28 .629 .28 .606 L .28 .079 C .28 .045 .28 .031000002 .17500001 .031000002 L .135 .031000002 L .135 0 C .17600002 .003 .278 .003 .324 .003 C .37 .003 .473 .003 .514 0 L .514 .031000002 L .47400005 .031000002 C .36900003 .031000002 .36900003 .045 .36900003 .079 L .36900003 .606 C .36900003 .62600007 .36900003 .64000007 .387 .64400008 C .398 .646 .425 .646 .444 .646 C .595 .646 .61 .61300006 .624 .45200003 L .64900007 .45200003 L .63 .67700007 Z "/>
</symbol>
<symbol id="font_2_4">
<path d="M .36600004 .69600006 C .361 .70900008 .35900004 .716 .34300003 .716 C .32700003 .716 .324 .71000006 .319 .69600006 L .112 .098000008 C .094 .047000003 .054 .032 0 .031000002 L 0 0 C .023000002 .001 .066 .003 .102 .003 C .133 .003 .185 .001 .21700001 0 L .21700001 .031000002 C .16700001 .031000002 .142 .056 .142 .082 C .142 .085 .143 .095000009 .14400001 .097 L .19000001 .22800002 L .437 .22800002 L .49 .075 C .491 .071 .49300004 .065000008 .49300004 .061000006 C .49300004 .031000002 .437 .031000002 .41000004 .031000002 L .41000004 0 C .446 .003 .51600006 .003 .554 .003 C .597 .003 .643 .002 .685 0 L .685 .031000002 L .66700008 .031000002 C .60700008 .031000002 .593 .038000004 .582 .071 L .36600004 .69600006 M .31300003 .58400008 L .42600004 .259 L .201 .259 L .31300003 .58400008 Z "/>
</symbol>
<symbol id="font_2_6">
<path d="M .19200002 .316 L .36100004 .316 C .48100005 .316 .589 .397 .589 .497 C .589 .595 .49000005 .683 .35300002 .683 L 0 .683 L 0 .652 L .024000004 .652 C .10100001 .652 .103000018 .64100006 .103000018 .605 L .103000018 .078 C .103000018 .042000005 .10100001 .031000002 .024000004 .031000002 L 0 .031000002 L 0 0 C .035 .003 .10900001 .003 .14700002 .003 C .18500002 .003 .26000003 .003 .29500003 0 L .29500003 .031000002 L .27100004 .031000002 C .19400002 .031000002 .19200002 .042000005 .19200002 .078 L .19200002 .316 M .18900001 .342 L .18900001 .61200007 C .18900001 .64500007 .19100002 .652 .238 .652 L .32700003 .652 C .48600004 .652 .48600004 .546 .48600004 .497 C .48600004 .45000003 .48600004 .342 .32700003 .342 L .18900001 .342 Z "/>
</symbol>
<symbol id="font_2_9">
<path d="M .14400001 .388 L .14400001 .705 L 0 .694 L 0 .663 C .07000001 .663 .07800001 .656 .07800001 .607 L .07800001 .011000001 L .103000018 .011000001 C .104 .012000001 .112 .026 .13900002 .07300001 C .15400002 .05 .19600001 0 .27 0 C .38900004 0 .49300004 .098000008 .49300004 .22700002 C .49300004 .35400004 .395 .45300005 .28100003 .45300005 C .20300001 .45300005 .16000001 .40600003 .14400001 .388 M .14700002 .12500002 L .14700002 .33100004 C .14700002 .35000003 .14700002 .351 .158 .367 C .19700001 .42300005 .252 .43100003 .27600003 .43100003 C .321 .43100003 .35700003 .40500004 .381 .367 C .40700004 .32600004 .41000004 .26900003 .41000004 .22800002 C .41000004 .19100002 .40800003 .13100001 .379 .086 C .358 .055000005 .32000003 .022000002 .266 .022000002 C .22100002 .022000002 .18500002 .046 .16100002 .083000008 C .14700002 .104 .14700002 .107 .14700002 .12500002 Z "/>
</symbol>
<symbol id="font_2_10">
<path d="M .144 .694 L 0 .683 L 0 .652 C .07000001 .652 .07800001 .64500007 .07800001 .596 L .07800001 .076000008 C .07800001 .031000002 .067 .031000002 0 .031000002 L 0 0 C .033 .001 .086 .003 .11100001 .003 C .136 .003 .185 .001 .22200004 0 L .22200004 .031000002 C .155 .031000002 .144 .031000002 .144 .076000008 L .144 .694 Z "/>
</symbol>
<symbol id="font_2_11">
<path d="M .07800001 .344 L .07800001 .076000008 C .07800001 .031000002 .067 .031000002 0 .031000002 L 0 0 C .035 .001 .08600001 .003 .113000009 .003 C .139 .003 .191 .001 .225 0 L .225 .031000002 C .158 .031000002 .147 .031000002 .147 .076000008 L .147 .26000003 C .147 .36400003 .218 .42000003 .282 .42000003 C .345 .42000003 .356 .36600004 .356 .30900003 L .356 .076000008 C .356 .031000002 .345 .031000002 .278 .031000002 L .278 0 C .31300003 .001 .36400003 .003 .391 .003 C .41700004 .003 .46900005 .001 .503 0 L .503 .031000002 C .43600003 .031000002 .425 .031000002 .425 .076000008 L .425 .26000003 C .425 .36400003 .496 .42000003 .56 .42000003 C .623 .42000003 .634 .36600004 .634 .30900003 L .634 .076000008 C .634 .031000002 .623 .031000002 .556 .031000002 L .556 0 C .591 .001 .642 .003 .669 .003 C .69500008 .003 .74700006 .001 .781 0 L .781 .031000002 C .72900006 .031000002 .70400008 .031000002 .703 .061000006 L .703 .252 C .703 .33800004 .703 .36900003 .67200008 .40500004 C .65800008 .42200003 .625 .44200004 .56700006 .44200004 C .48300005 .44200004 .439 .38200004 .42200003 .344 C .40800003 .43100003 .33400003 .44200004 .289 .44200004 C .216 .44200004 .169 .39900003 .141 .337 L .141 .44200004 L 0 .43100003 L 0 .4 C .07000001 .4 .07800001 .393 .07800001 .344 Z "/>
</symbol>
<use xlink:href="#font_2_7" transform="matrix(9.9626,0,0,-9.9626,57.054658,10.238998)"/>
<use xlink:href="#font_2_e" transform="matrix(9.9626,0,0,-9.9626,64.2078,10.238998)"/>
<use xlink:href="#font_2_b" transform="matrix(9.9626,0,0,-9.9626,69.70716,10.348587)"/>
<use xlink:href="#font_2_4" transform="matrix(9.9626,0,0,-9.9626,77.487949,10.238998)"/>
<use xlink:href="#font_2_14" transform="matrix(9.9626,0,0,-9.9626,84.92004,10.238998)"/>
<use xlink:href="#font_2_b" transform="matrix(9.9626,0,0,-9.9626,88.825389,10.348587)"/>
<use xlink:href="#font_2_8" transform="matrix(9.9626,0,0,-9.9626,93.388248,10.348587)"/>
<use xlink:href="#font_2_6" transform="matrix(9.9626,0,0,-9.9626,101.62732,10.238998)"/>
<use xlink:href="#font_2_14" transform="matrix(9.9626,0,0,-9.9626,108.34211,10.238998)"/>
<use xlink:href="#font_2_13" transform="matrix(9.9626,0,0,-9.9626,112.24746,10.348587)"/>
<use xlink:href="#font_2_9" transform="matrix(9.9626,0,0,-9.9626,117.22875,10.348587)"/>
<use xlink:href="#font_2_10" transform="matrix(9.9626,0,0,-9.9626,122.81778,10.238998)"/>
<use xlink:href="#font_2_b" transform="matrix(9.9626,0,0,-9.9626,125.53756,10.348587)"/>
<use xlink:href="#font_2_11" transform="matrix(9.9626,0,0,-9.9626,130.00081,10.238998)"/>
</svg>
