<?xml version="1.0" encoding="UTF-8" standalone="no"?>
<!DOCTYPE svg PUBLIC "-//W3C//DTD SVG 1.1//EN" "http://www.w3.org/Graphics/SVG/1.1/DTD/svg11.dtd">
<svg xmlns="http://www.w3.org/2000/svg" xmlns:xlink="http://www.w3.org/1999/xlink" version="1.1" width="194.67pt" height="181.02pt" viewBox="0 0 194.67 181.02">
<path transform="matrix(1,0,0,-1,.199,181.02)" stroke-width="1" stroke-linecap="butt" stroke-miterlimit="10" stroke-linejoin="miter" fill="none" stroke="#808080" d="M 42.49742 38.22343 L 42.49742 42.47557 M 163.91867 38.22343 L 163.91867 42.47557 "/>
<path transform="matrix(1,0,0,-1,.199,181.02)" stroke-width="1" stroke-linecap="butt" stroke-miterlimit="10" stroke-linejoin="miter" fill="none" stroke="#000000" d="M 0 40.3495 L 192.28145 40.3495 "/>
<path transform="matrix(1,0,0,-1,192.48046,140.6705)" d="M 1.99252 0 L -1.19551 1.59401 L 0 0 L -1.19551 -1.59401 "/>
<clipPath id="cp0">
<path transform="matrix(1,0,0,-1,.199,181.02)" d="M 0 0 L 194.27399 0 L 194.27399 161.39646 L 0 161.39646 Z "/>
</clipPath>
<g clip-path="url(#cp0)">
<path transform="matrix(1,0,0,-1,.199,181.02)" d="M 42.49742 99.52762 L 42.80403 99.52762 L 43.11064 99.52762 L 43.41727 99.52762 L 43.72389 99.52762 L 44.0305 99.52762 L 44.33713 99.52762 L 44.64375 99.52762 L 44.95038 99.52762 L 45.25699 99.52762 L 45.56358 99.52762 L 45.87021 99.52762 L 46.17683 99.52762 L 46.48344 99.52762 L 46.79007 99.52762 L 47.0967 99.52762 L 47.40332 99.52762 L 47.70993 99.52762 L 48.01656 99.52762 L 48.32317 99.52762 L 48.62978 99.52762 L 48.93639 99.52762 L 49.24301 99.52762 L 49.54964 99.52762 L 49.85626 99.52762 L 50.16287 99.52762 L 50.4695 99.52762 L 50.77612 99.52762 L 51.08273 99.52762 L 51.38936 99.52762 L 51.69597 99.52762 L 52.00258 99.52762 L 52.3092 99.52762 L 52.61581 99.52762 L 52.92244 99.52762 L 53.22906 99.52762 L 53.53568 99.52762 L 53.8423 99.52762 L 54.14893 99.52762 L 54.45554 99.52762 L 54.76216 99.52762 L 55.06877 99.52762 L 55.37538 99.52762 L 55.682 99.52762 L 55.98862 99.52762 L 56.29524 99.52762 L 56.60187 99.52762 L 56.9085 99.52762 L 57.2151 99.52762 L 57.52171 99.52762 L 57.82834 99.52762 L 58.13496 99.52762 L 58.44156 99.52762 L 58.74818 99.52762 L 59.05481 99.52762 L 59.36143 99.52762 L 59.66805 99.52762 L 59.97467 99.52762 L 60.2813 99.52762 L 60.5879 99.52762 L 60.89452 99.52762 L 61.20114 99.52762 L 61.50777 99.52762 L 61.81438 99.52762 L 62.12099 99.52762 L 62.42761 99.52762 L 62.73424 99.52762 L 63.04085 99.52762 L 63.34747 99.52762 L 63.65408 99.52762 L 63.96071 99.52762 L 64.26733 99.52762 L 64.57394 99.52762 L 64.88055 99.52762 L 65.18718 99.52762 L 65.49379 99.52762 L 65.80042 99.52762 L 66.10704 99.52762 L 66.41365 99.52762 L 66.72028 99.52762 L 67.02689 99.52762 L 67.33351 99.52762 L 67.64014 99.52762 L 67.94675 99.52762 L 68.25336 99.52762 L 68.55998 99.52762 L 68.8666 99.52762 L 69.17322 99.52762 L 69.47984 99.52762 L 69.78647 99.52762 L 70.09308 99.52762 L 70.39969 99.52762 L 70.70631 99.52762 L 71.01294 99.52762 L 71.31955 99.52762 L 71.62616 99.52762 L 71.93279 99.52762 L 72.23941 99.52762 L 72.54602 99.52762 L 72.85263 99.52762 L 72.85263 40.3495 L 72.54602 40.3495 L 72.23941 40.3495 L 71.93279 40.3495 L 71.62616 40.3495 L 71.31955 40.3495 L 71.01294 40.3495 L 70.70631 40.3495 L 70.39969 40.3495 L 70.09308 40.3495 L 69.78647 40.3495 L 69.47984 40.3495 L 69.17322 40.3495 L 68.8666 40.3495 L 68.55998 40.3495 L 68.25336 40.3495 L 67.94675 40.3495 L 67.64014 40.3495 L 67.33351 40.3495 L 67.02689 40.3495 L 66.72028 40.3495 L 66.41365 40.3495 L 66.10704 40.3495 L 65.80042 40.3495 L 65.49379 40.3495 L 65.18718 40.3495 L 64.88055 40.3495 L 64.57394 40.3495 L 64.26733 40.3495 L 63.96071 40.3495 L 63.65408 40.3495 L 63.34747 40.3495 L 63.04085 40.3495 L 62.73424 40.3495 L 62.42761 40.3495 L 62.12099 40.3495 L 61.81438 40.3495 L 61.50777 40.3495 L 61.20114 40.3495 L 60.89452 40.3495 L 60.5879 40.3495 L 60.2813 40.3495 L 59.97467 40.3495 L 59.66805 40.3495 L 59.36143 40.3495 L 59.05481 40.3495 L 58.74818 40.3495 L 58.44156 40.3495 L 58.13496 40.3495 L 57.82834 40.3495 L 57.52171 40.3495 L 57.2151 40.3495 L 56.9085 40.3495 L 56.60187 40.3495 L 56.29524 40.3495 L 55.98862 40.3495 L 55.682 40.3495 L 55.37538 40.3495 L 55.06877 40.3495 L 54.76216 40.3495 L 54.45554 40.3495 L 54.14893 40.3495 L 53.8423 40.3495 L 53.53568 40.3495 L 53.22906 40.3495 L 52.92244 40.3495 L 52.61581 40.3495 L 52.3092 40.3495 L 52.00258 40.3495 L 51.69597 40.3495 L 51.38936 40.3495 L 51.08273 40.3495 L 50.77612 40.3495 L 50.4695 40.3495 L 50.16287 40.3495 L 49.85626 40.3495 L 49.54964 40.3495 L 49.24301 40.3495 L 48.93639 40.3495 L 48.62978 40.3495 L 48.32317 40.3495 L 48.01656 40.3495 L 47.70993 40.3495 L 47.40332 40.3495 L 47.0967 40.3495 L 46.79007 40.3495 L 46.48344 40.3495 L 46.17683 40.3495 L 45.87021 40.3495 L 45.56358 40.3495 L 45.25699 40.3495 L 44.95038 40.3495 L 44.64375 40.3495 L 44.33713 40.3495 L 44.0305 40.3495 L 43.72389 40.3495 L 43.41727 40.3495 L 43.11064 40.3495 L 42.80403 40.3495 L 42.49742 40.3495 Z " fill="#e6e6ff"/>
</g>
<clipPath id="cp1">
<path transform="matrix(1,0,0,-1,.199,181.02)" d="M 0 0 L 194.27399 0 L 194.27399 161.39646 L 0 161.39646 Z "/>
</clipPath>
<g clip-path="url(#cp1)">
<path transform="matrix(1,0,0,-1,.199,181.02)" d="M 72.85274 110.28728 L 73.15935 110.28728 L 73.46596 110.28728 L 73.77257 110.28728 L 74.07918 110.28728 L 74.3858 110.28728 L 74.6924 110.28728 L 74.99901 110.28728 L 75.30562 110.28728 L 75.61224 110.28728 L 75.91885 110.28728 L 76.22546 110.28728 L 76.53209 110.28728 L 76.8387 110.28728 L 77.14531 110.28728 L 77.45193 110.28728 L 77.75854 110.28728 L 78.06514 110.28728 L 78.37175 110.28728 L 78.67838 110.28728 L 78.98499 110.28728 L 79.2916 110.28728 L 79.59822 110.28728 L 79.90483 110.28728 L 80.21144 110.28728 L 80.51807 110.28728 L 80.82468 110.28728 L 81.13127 110.28728 L 81.43788 110.28728 L 81.7445 110.28728 L 82.05112 110.28728 L 82.35773 110.28728 L 82.66435 110.28728 L 82.97096 110.28728 L 83.27757 110.28728 L 83.58418 110.28728 L 83.89081 110.28728 L 84.19742 110.28728 L 84.50401 110.28728 L 84.81062 110.28728 L 85.11725 110.28728 L 85.42386 110.28728 L 85.73047 110.28728 L 86.03708 110.28728 L 86.3437 110.28728 L 86.65031 110.28728 L 86.95692 110.28728 L 87.26353 110.28728 L 87.57016 110.28728 L 87.87675 110.28728 L 88.18336 110.28728 L 88.48997 110.28728 L 88.7966 110.28728 L 89.10321 110.28728 L 89.40982 110.28728 L 89.71645 110.28728 L 90.02306 110.28728 L 90.32967 110.28728 L 90.63628 110.28728 L 90.9429 110.28728 L 91.2495 110.28728 L 91.5561 110.28728 L 91.86273 110.28728 L 92.16934 110.28728 L 92.47595 110.28728 L 92.78258 110.28728 L 93.08919 110.28728 L 93.3958 110.28728 L 93.70241 110.28728 L 94.00903 110.28728 L 94.31563 110.28728 L 94.62224 110.28728 L 94.92886 110.28728 L 95.23547 110.28728 L 95.54208 110.28728 L 95.8487 110.28728 L 96.15532 110.28728 L 96.46193 110.28728 L 96.76854 110.28728 L 97.07516 110.28728 L 97.38177 110.28728 L 97.68837 110.28728 L 97.99498 110.28728 L 98.3016 110.28728 L 98.60822 110.28728 L 98.91483 110.28728 L 99.22144 110.28728 L 99.52806 110.28728 L 99.83467 110.28728 L 100.14128 110.28728 L 100.44789 110.28728 L 100.7545 110.28728 L 101.06111 110.28728 L 101.36772 110.28728 L 101.67433 110.28728 L 101.98094 110.28728 L 102.28757 110.28728 L 102.59418 110.28728 L 102.90079 110.28728 L 103.20741 110.28728 L 103.20741 40.3495 L 102.90079 40.3495 L 102.59418 40.3495 L 102.28757 40.3495 L 101.98094 40.3495 L 101.67433 40.3495 L 101.36772 40.3495 L 101.06111 40.3495 L 100.7545 40.3495 L 100.44789 40.3495 L 100.14128 40.3495 L 99.83467 40.3495 L 99.52806 40.3495 L 99.22144 40.3495 L 98.91483 40.3495 L 98.60822 40.3495 L 98.3016 40.3495 L 97.99498 40.3495 L 97.68837 40.3495 L 97.38177 40.3495 L 97.07516 40.3495 L 96.76854 40.3495 L 96.46193 40.3495 L 96.15532 40.3495 L 95.8487 40.3495 L 95.54208 40.3495 L 95.23547 40.3495 L 94.92886 40.3495 L 94.62224 40.3495 L 94.31563 40.3495 L 94.00903 40.3495 L 93.70241 40.3495 L 93.3958 40.3495 L 93.08919 40.3495 L 92.78258 40.3495 L 92.47595 40.3495 L 92.16934 40.3495 L 91.86273 40.3495 L 91.5561 40.3495 L 91.2495 40.3495 L 90.9429 40.3495 L 90.63628 40.3495 L 90.32967 40.3495 L 90.02306 40.3495 L 89.71645 40.3495 L 89.40982 40.3495 L 89.10321 40.3495 L 88.7966 40.3495 L 88.48997 40.3495 L 88.18336 40.3495 L 87.87675 40.3495 L 87.57016 40.3495 L 87.26353 40.3495 L 86.95692 40.3495 L 86.65031 40.3495 L 86.3437 40.3495 L 86.03708 40.3495 L 85.73047 40.3495 L 85.42386 40.3495 L 85.11725 40.3495 L 84.81062 40.3495 L 84.50401 40.3495 L 84.19742 40.3495 L 83.89081 40.3495 L 83.58418 40.3495 L 83.27757 40.3495 L 82.97096 40.3495 L 82.66435 40.3495 L 82.35773 40.3495 L 82.05112 40.3495 L 81.7445 40.3495 L 81.43788 40.3495 L 81.13127 40.3495 L 80.82468 40.3495 L 80.51807 40.3495 L 80.21144 40.3495 L 79.90483 40.3495 L 79.59822 40.3495 L 79.2916 40.3495 L 78.98499 40.3495 L 78.67838 40.3495 L 78.37175 40.3495 L 78.06514 40.3495 L 77.75854 40.3495 L 77.45193 40.3495 L 77.14531 40.3495 L 76.8387 40.3495 L 76.53209 40.3495 L 76.22546 40.3495 L 75.91885 40.3495 L 75.61224 40.3495 L 75.30562 40.3495 L 74.99901 40.3495 L 74.6924 40.3495 L 74.3858 40.3495 L 74.07918 40.3495 L 73.77257 40.3495 L 73.46596 40.3495 L 73.15935 40.3495 L 72.85274 40.3495 Z " fill="#e6e6ff"/>
</g>
<clipPath id="cp2">
<path transform="matrix(1,0,0,-1,.199,181.02)" d="M 0 0 L 194.27399 0 L 194.27399 161.39646 L 0 161.39646 Z "/>
</clipPath>
<g clip-path="url(#cp2)">
<path transform="matrix(1,0,0,-1,.199,181.02)" d="M 103.20805 83.38814 L 103.51466 83.38814 L 103.82126 83.38814 L 104.12787 83.38814 L 104.43448 83.38814 L 104.7411 83.38814 L 105.04771 83.38814 L 105.35432 83.38814 L 105.66093 83.38814 L 105.96756 83.38814 L 106.27417 83.38814 L 106.58078 83.38814 L 106.8874 83.38814 L 107.194 83.38814 L 107.50061 83.38814 L 107.80724 83.38814 L 108.11385 83.38814 L 108.42046 83.38814 L 108.72707 83.38814 L 109.03369 83.38814 L 109.3403 83.38814 L 109.64691 83.38814 L 109.95354 83.38814 L 110.26013 83.38814 L 110.56674 83.38814 L 110.87337 83.38814 L 111.17998 83.38814 L 111.48659 83.38814 L 111.7932 83.38814 L 112.09982 83.38814 L 112.40643 83.38814 L 112.71304 83.38814 L 113.01967 83.38814 L 113.32628 83.38814 L 113.63287 83.38814 L 113.93948 83.38814 L 114.24611 83.38814 L 114.55272 83.38814 L 114.85933 83.38814 L 115.16594 83.38814 L 115.47256 83.38814 L 115.77917 83.38814 L 116.08578 83.38814 L 116.3924 83.38814 L 116.69902 83.38814 L 117.00562 83.38814 L 117.31223 83.38814 L 117.61884 83.38814 L 117.92546 83.38814 L 118.23207 83.38814 L 118.53868 83.38814 L 118.84529 83.38814 L 119.15192 83.38814 L 119.45853 83.38814 L 119.76514 83.38814 L 120.07176 83.38814 L 120.37836 83.38814 L 120.68497 83.38814 L 120.99158 83.38814 L 121.2982 83.38814 L 121.60481 83.38814 L 121.91142 83.38814 L 122.21805 83.38814 L 122.52466 83.38814 L 122.83127 83.38814 L 123.1379 83.38814 L 123.44449 83.38814 L 123.7511 83.38814 L 124.05771 83.38814 L 124.36433 83.38814 L 124.67094 83.38814 L 124.97755 83.38814 L 125.28418 83.38814 L 125.59079 83.38814 L 125.8974 83.38814 L 126.20401 83.38814 L 126.51064 83.38814 L 126.81723 83.38814 L 127.12384 83.38814 L 127.43047 83.38814 L 127.73708 83.38814 L 128.04369 83.38814 L 128.3503 83.38814 L 128.65692 83.38814 L 128.96353 83.38814 L 129.27014 83.38814 L 129.57675 83.38814 L 129.88338 83.38814 L 130.18997 83.38814 L 130.49658 83.38814 L 130.80319 83.38814 L 131.1098 83.38814 L 131.41643 83.38814 L 131.72304 83.38814 L 132.02965 83.38814 L 132.33628 83.38814 L 132.64289 83.38814 L 132.9495 83.38814 L 133.2561 83.38814 L 133.56272 83.38814 L 133.56272 40.3495 L 133.2561 40.3495 L 132.9495 40.3495 L 132.64289 40.3495 L 132.33628 40.3495 L 132.02965 40.3495 L 131.72304 40.3495 L 131.41643 40.3495 L 131.1098 40.3495 L 130.80319 40.3495 L 130.49658 40.3495 L 130.18997 40.3495 L 129.88338 40.3495 L 129.57675 40.3495 L 129.27014 40.3495 L 128.96353 40.3495 L 128.65692 40.3495 L 128.3503 40.3495 L 128.04369 40.3495 L 127.73708 40.3495 L 127.43047 40.3495 L 127.12384 40.3495 L 126.81723 40.3495 L 126.51064 40.3495 L 126.20401 40.3495 L 125.8974 40.3495 L 125.59079 40.3495 L 125.28418 40.3495 L 124.97755 40.3495 L 124.67094 40.3495 L 124.36433 40.3495 L 124.05771 40.3495 L 123.7511 40.3495 L 123.44449 40.3495 L 123.1379 40.3495 L 122.83127 40.3495 L 122.52466 40.3495 L 122.21805 40.3495 L 121.91142 40.3495 L 121.60481 40.3495 L 121.2982 40.3495 L 120.99158 40.3495 L 120.68497 40.3495 L 120.37836 40.3495 L 120.07176 40.3495 L 119.76514 40.3495 L 119.45853 40.3495 L 119.15192 40.3495 L 118.84529 40.3495 L 118.53868 40.3495 L 118.23207 40.3495 L 117.92546 40.3495 L 117.61884 40.3495 L 117.31223 40.3495 L 117.00562 40.3495 L 116.69902 40.3495 L 116.3924 40.3495 L 116.08578 40.3495 L 115.77917 40.3495 L 115.47256 40.3495 L 115.16594 40.3495 L 114.85933 40.3495 L 114.55272 40.3495 L 114.24611 40.3495 L 113.93948 40.3495 L 113.63287 40.3495 L 113.32628 40.3495 L 113.01967 40.3495 L 112.71304 40.3495 L 112.40643 40.3495 L 112.09982 40.3495 L 111.7932 40.3495 L 111.48659 40.3495 L 111.17998 40.3495 L 110.87337 40.3495 L 110.56674 40.3495 L 110.26013 40.3495 L 109.95354 40.3495 L 109.64691 40.3495 L 109.3403 40.3495 L 109.03369 40.3495 L 108.72707 40.3495 L 108.42046 40.3495 L 108.11385 40.3495 L 107.80724 40.3495 L 107.50061 40.3495 L 107.194 40.3495 L 106.8874 40.3495 L 106.58078 40.3495 L 106.27417 40.3495 L 105.96756 40.3495 L 105.66093 40.3495 L 105.35432 40.3495 L 105.04771 40.3495 L 104.7411 40.3495 L 104.43448 40.3495 L 104.12787 40.3495 L 103.82126 40.3495 L 103.51466 40.3495 L 103.20805 40.3495 Z " fill="#e6e6ff"/>
</g>
<clipPath id="cp3">
<path transform="matrix(1,0,0,-1,.199,181.02)" d="M 0 0 L 194.27399 0 L 194.27399 161.39646 L 0 161.39646 Z "/>
</clipPath>
<g clip-path="url(#cp3)">
<path transform="matrix(1,0,0,-1,.199,181.02)" d="M 133.56336 94.1478 L 133.86997 94.1478 L 134.17658 94.1478 L 134.48319 94.1478 L 134.7898 94.1478 L 135.09642 94.1478 L 135.40303 94.1478 L 135.70964 94.1478 L 136.01625 94.1478 L 136.32286 94.1478 L 136.62947 94.1478 L 136.93608 94.1478 L 137.2427 94.1478 L 137.54932 94.1478 L 137.85593 94.1478 L 138.16255 94.1478 L 138.46916 94.1478 L 138.77577 94.1478 L 139.08238 94.1478 L 139.38899 94.1478 L 139.6956 94.1478 L 140.00222 94.1478 L 140.30884 94.1478 L 140.61545 94.1478 L 140.92206 94.1478 L 141.22869 94.1478 L 141.5353 94.1478 L 141.8419 94.1478 L 142.14852 94.1478 L 142.45514 94.1478 L 142.76174 94.1478 L 143.06835 94.1478 L 143.37497 94.1478 L 143.68158 94.1478 L 143.98819 94.1478 L 144.2948 94.1478 L 144.60143 94.1478 L 144.90804 94.1478 L 145.21465 94.1478 L 145.52126 94.1478 L 145.82788 94.1478 L 146.13448 94.1478 L 146.44109 94.1478 L 146.7477 94.1478 L 147.05432 94.1478 L 147.36093 94.1478 L 147.66754 94.1478 L 147.97415 94.1478 L 148.28078 94.1478 L 148.58739 94.1478 L 148.894 94.1478 L 149.2006 94.1478 L 149.50722 94.1478 L 149.81383 94.1478 L 150.12044 94.1478 L 150.42707 94.1478 L 150.73368 94.1478 L 151.04029 94.1478 L 151.3469 94.1478 L 151.65352 94.1478 L 151.96013 94.1478 L 152.26674 94.1478 L 152.57335 94.1478 L 152.87996 94.1478 L 153.18657 94.1478 L 153.4932 94.1478 L 153.7998 94.1478 L 154.10642 94.1478 L 154.41303 94.1478 L 154.71965 94.1478 L 155.02626 94.1478 L 155.33287 94.1478 L 155.6395 94.1478 L 155.94609 94.1478 L 156.2527 94.1478 L 156.55931 94.1478 L 156.86594 94.1478 L 157.17255 94.1478 L 157.47916 94.1478 L 157.78578 94.1478 L 158.09239 94.1478 L 158.399 94.1478 L 158.70561 94.1478 L 159.01224 94.1478 L 159.31884 94.1478 L 159.62545 94.1478 L 159.93206 94.1478 L 160.23868 94.1478 L 160.54529 94.1478 L 160.8519 94.1478 L 161.15851 94.1478 L 161.46512 94.1478 L 161.77175 94.1478 L 162.07836 94.1478 L 162.38495 94.1478 L 162.69158 94.1478 L 162.99819 94.1478 L 163.3048 94.1478 L 163.6114 94.1478 L 163.91803 94.1478 L 163.91803 40.3495 L 163.6114 40.3495 L 163.3048 40.3495 L 162.99819 40.3495 L 162.69158 40.3495 L 162.38495 40.3495 L 162.07836 40.3495 L 161.77175 40.3495 L 161.46512 40.3495 L 161.15851 40.3495 L 160.8519 40.3495 L 160.54529 40.3495 L 160.23868 40.3495 L 159.93206 40.3495 L 159.62545 40.3495 L 159.31884 40.3495 L 159.01224 40.3495 L 158.70561 40.3495 L 158.399 40.3495 L 158.09239 40.3495 L 157.78578 40.3495 L 157.47916 40.3495 L 157.17255 40.3495 L 156.86594 40.3495 L 156.55931 40.3495 L 156.2527 40.3495 L 155.94609 40.3495 L 155.6395 40.3495 L 155.33287 40.3495 L 155.02626 40.3495 L 154.71965 40.3495 L 154.41303 40.3495 L 154.10642 40.3495 L 153.7998 40.3495 L 153.4932 40.3495 L 153.18657 40.3495 L 152.87996 40.3495 L 152.57335 40.3495 L 152.26674 40.3495 L 151.96013 40.3495 L 151.65352 40.3495 L 151.3469 40.3495 L 151.04029 40.3495 L 150.73368 40.3495 L 150.42707 40.3495 L 150.12044 40.3495 L 149.81383 40.3495 L 149.50722 40.3495 L 149.2006 40.3495 L 148.894 40.3495 L 148.58739 40.3495 L 148.28078 40.3495 L 147.97415 40.3495 L 147.66754 40.3495 L 147.36093 40.3495 L 147.05432 40.3495 L 146.7477 40.3495 L 146.44109 40.3495 L 146.13448 40.3495 L 145.82788 40.3495 L 145.52126 40.3495 L 145.21465 40.3495 L 144.90804 40.3495 L 144.60143 40.3495 L 144.2948 40.3495 L 143.98819 40.3495 L 143.68158 40.3495 L 143.37497 40.3495 L 143.06835 40.3495 L 142.76174 40.3495 L 142.45514 40.3495 L 142.14852 40.3495 L 141.8419 40.3495 L 141.5353 40.3495 L 141.22869 40.3495 L 140.92206 40.3495 L 140.61545 40.3495 L 140.30884 40.3495 L 140.00222 40.3495 L 139.6956 40.3495 L 139.38899 40.3495 L 139.08238 40.3495 L 138.77577 40.3495 L 138.46916 40.3495 L 138.16255 40.3495 L 137.85593 40.3495 L 137.54932 40.3495 L 137.2427 40.3495 L 136.93608 40.3495 L 136.62947 40.3495 L 136.32286 40.3495 L 136.01625 40.3495 L 135.70964 40.3495 L 135.40303 40.3495 L 135.09642 40.3495 L 134.7898 40.3495 L 134.48319 40.3495 L 134.17658 40.3495 L 133.86997 40.3495 L 133.56336 40.3495 Z " fill="#e6e6ff"/>
</g>
<symbol id="font_4_1">
<path d="M .33300004 .38900004 C .31500004 .42600004 .286 .45300005 .24100001 .45300005 C .124 .45300005 0 .30600003 0 .16000001 C 0 .06600001 .055000005 0 .133 0 C .153 0 .20300001 .0040000008 .263 .075 C .27100004 .033000005 .30600003 0 .35400004 0 C .38900004 0 .41200004 .023000002 .42800004 .055000005 C .44500003 .091000009 .45800004 .15200001 .45800004 .15400002 C .45800004 .16400002 .44900004 .16400002 .44600005 .16400002 C .43600003 .16400002 .43500004 .16000001 .43200005 .14600002 C .41500003 .081 .397 .022000002 .35600005 .022000002 C .32900004 .022000002 .32600004 .048 .32600004 .068 C .32600004 .09 .32800005 .098000008 .33900003 .14200002 C .35000003 .18400002 .35200004 .19400002 .36100004 .23200003 L .397 .37200005 C .40400005 .40000005 .40400005 .40200005 .40400005 .40600003 C .40400005 .42300005 .39200003 .43300004 .37500004 .43300004 C .35100005 .43300004 .33600004 .411 .33300004 .38900004 M .26800005 .13000001 C .263 .112 .263 .11000001 .24800001 .093 C .20400001 .038000004 .163 .022000002 .135 .022000002 C .08499999 .022000002 .07100001 .077 .07100001 .116000007 C .07100001 .16600001 .103 .28900004 .126 .335 C .157 .39400003 .202 .43100003 .242 .43100003 C .307 .43100003 .32100005 .34900005 .32100005 .34300003 C .32100005 .337 .31900005 .33100004 .31800003 .32600004 L .26800005 .13000001 Z "/>
</symbol>
<use xlink:href="#font_4_1" transform="matrix(9.9626,0,0,-9.9626,40.461503,150.71559)"/>
<symbol id="font_4_2">
<path d="M .192 .694 C .192 .695 .192 .705 .179 .705 C .156 .705 .083000008 .697 .057 .695 C .049 .694 .038 .693 .038 .675 C .038 .663 .047000003 .663 .062000004 .663 C .11 .663 .112 .656 .112 .646 C .112 .639 .103 .605 .098000008 .584 L .015999999 .25800003 C .0040000008 .20800002 0 .19200002 0 .15700002 C 0 .062000004 .053 0 .127 0 C .24500002 0 .36800004 .14900002 .36800004 .293 C .36800004 .38400004 .31500004 .45300005 .235 .45300005 C .18900001 .45300005 .148 .42400003 .118 .39300005 L .192 .694 M .098000008 .316 C .104 .33800004 .104 .34000004 .113000009 .351 C .162 .41600005 .207 .43100003 .233 .43100003 C .26900003 .43100003 .29600004 .40100003 .29600004 .337 C .29600004 .27800004 .263 .16300002 .24500002 .12500002 C .212 .058000003 .16600001 .022000002 .127 .022000002 C .092999998 .022000002 .060000007 .049000004 .060000007 .123 C .060000007 .14200002 .060000007 .16100002 .076000008 .22400002 L .098000008 .316 Z "/>
</symbol>
<use xlink:href="#font_4_2" transform="matrix(9.9626,0,0,-9.9626,162.44626,153.34459)"/>
<clipPath id="cp5">
<path transform="matrix(1,0,0,-1,.199,181.02)" d="M 0 0 L 194.27399 0 L 194.27399 161.39646 L 0 161.39646 Z "/>
</clipPath>
<g clip-path="url(#cp5)">
<path transform="matrix(1,0,0,-1,.199,181.02)" stroke-width="1" stroke-linecap="butt" stroke-miterlimit="10" stroke-linejoin="miter" fill="none" stroke="#000000" d="M 42.49742 94.1478 L 43.72383 96.2559 L 44.95026 98.235 L 46.17667 100.08769 L 47.4031 101.81662 L 48.62953 103.4245 L 49.85594 104.91393 L 51.08237 106.2876 L 52.30878 107.54819 L 53.5352 108.69833 L 54.76163 109.74069 L 55.98804 110.67793 L 57.21446 111.51274 L 58.44089 112.24774 L 59.6673 112.8856 L 60.89374 113.429 L 62.12016 113.8806 L 63.34657 114.24304 L 64.573 114.51898 L 65.79941 114.7111 L 67.02583 114.82207 L 68.25226 114.8545 L 69.47867 114.81113 L 70.7051 114.69453 L 71.93152 114.50745 L 73.15794 114.25249 L 74.38437 113.93233 L 75.6108 113.54962 L 76.8372 113.10704 L 78.06363 112.60725 L 79.29004 112.05289 L 80.51646 111.44666 L 81.74289 110.79115 L 82.9693 110.08911 L 84.19572 109.34314 L 85.42216 108.55592 L 86.64857 107.7301 L 87.875 106.86836 L 89.10143 105.97336 L 90.32784 105.04774 L 91.55426 104.09418 L 92.78067 103.11533 L 94.0071 102.11386 L 95.23352 101.09242 L 96.45993 100.05368 L 97.68636 99.00029 L 98.9128 97.93494 L 100.1392 96.86024 L 101.36563 95.77892 L 102.59204 94.69359 L 103.81847 93.60692 L 105.04489 92.52158 L 106.2713 91.4402 L 107.49773 90.3655 L 108.72415 89.30008 L 109.95056 88.24664 L 111.177 87.20782 L 112.40343 86.1863 L 113.62984 85.18474 L 114.85626 84.20578 L 116.08267 83.25209 L 117.3091 82.32634 L 118.53552 81.43118 L 119.76193 80.56929 L 120.98836 79.7433 L 122.21478 78.9559 L 123.44121 78.20975 L 124.66763 77.50749 L 125.89406 76.85179 L 127.12047 76.2453 L 128.3469 75.6907 L 129.5733 75.19066 L 130.79973 74.74782 L 132.02616 74.36484 L 133.25257 74.04439 L 134.47899 73.78912 L 135.70543 73.60172 L 136.93184 73.4848 L 138.15827 73.44107 L 139.38469 73.47318 L 140.6111 73.58379 L 141.83753 73.77553 L 143.06394 74.05109 L 144.29036 74.41313 L 145.51679 74.86429 L 146.7432 75.40727 L 147.96962 76.04471 L 149.19606 76.77927 L 150.42247 77.61362 L 151.6489 78.5504 L 152.87532 79.59227 L 154.10173 80.74193 L 155.32816 82.002 L 156.55457 83.37514 L 157.78099 84.86404 L 159.00742 86.47137 L 160.23383 88.19975 L 161.46027 90.05188 L 162.68669 92.03038 L 163.9131 94.13794 "/>
<path transform="matrix(1,0,0,-1,.199,181.02)" stroke-width="1" stroke-linecap="butt" stroke-miterlimit="10" stroke-linejoin="miter" fill="none" stroke="#000000" d="M 42.49742 99.52762 L 42.80403 99.52762 L 43.11064 99.52762 L 43.41727 99.52762 L 43.72389 99.52762 L 44.0305 99.52762 L 44.33713 99.52762 L 44.64375 99.52762 L 44.95038 99.52762 L 45.25699 99.52762 L 45.56358 99.52762 L 45.87021 99.52762 L 46.17683 99.52762 L 46.48344 99.52762 L 46.79007 99.52762 L 47.0967 99.52762 L 47.40332 99.52762 L 47.70993 99.52762 L 48.01656 99.52762 L 48.32317 99.52762 L 48.62978 99.52762 L 48.93639 99.52762 L 49.24301 99.52762 L 49.54964 99.52762 L 49.85626 99.52762 L 50.16287 99.52762 L 50.4695 99.52762 L 50.77612 99.52762 L 51.08273 99.52762 L 51.38936 99.52762 L 51.69597 99.52762 L 52.00258 99.52762 L 52.3092 99.52762 L 52.61581 99.52762 L 52.92244 99.52762 L 53.22906 99.52762 L 53.53568 99.52762 L 53.8423 99.52762 L 54.14893 99.52762 L 54.45554 99.52762 L 54.76216 99.52762 L 55.06877 99.52762 L 55.37538 99.52762 L 55.682 99.52762 L 55.98862 99.52762 L 56.29524 99.52762 L 56.60187 99.52762 L 56.9085 99.52762 L 57.2151 99.52762 L 57.52171 99.52762 L 57.82834 99.52762 L 58.13496 99.52762 L 58.44156 99.52762 L 58.74818 99.52762 L 59.05481 99.52762 L 59.36143 99.52762 L 59.66805 99.52762 L 59.97467 99.52762 L 60.2813 99.52762 L 60.5879 99.52762 L 60.89452 99.52762 L 61.20114 99.52762 L 61.50777 99.52762 L 61.81438 99.52762 L 62.12099 99.52762 L 62.42761 99.52762 L 62.73424 99.52762 L 63.04085 99.52762 L 63.34747 99.52762 L 63.65408 99.52762 L 63.96071 99.52762 L 64.26733 99.52762 L 64.57394 99.52762 L 64.88055 99.52762 L 65.18718 99.52762 L 65.49379 99.52762 L 65.80042 99.52762 L 66.10704 99.52762 L 66.41365 99.52762 L 66.72028 99.52762 L 67.02689 99.52762 L 67.33351 99.52762 L 67.64014 99.52762 L 67.94675 99.52762 L 68.25336 99.52762 L 68.55998 99.52762 L 68.8666 99.52762 L 69.17322 99.52762 L 69.47984 99.52762 L 69.78647 99.52762 L 70.09308 99.52762 L 70.39969 99.52762 L 70.70631 99.52762 L 71.01294 99.52762 L 71.31955 99.52762 L 71.62616 99.52762 L 71.93279 99.52762 L 72.23941 99.52762 L 72.54602 99.52762 L 72.85263 99.52762 "/>
<path transform="matrix(1,0,0,-1,.199,181.02)" stroke-width="1" stroke-linecap="butt" stroke-miterlimit="10" stroke-linejoin="miter" fill="none" stroke="#000000" d="M 72.85274 110.28728 L 73.15935 110.28728 L 73.46596 110.28728 L 73.77257 110.28728 L 74.07918 110.28728 L 74.3858 110.28728 L 74.6924 110.28728 L 74.99901 110.28728 L 75.30562 110.28728 L 75.61224 110.28728 L 75.91885 110.28728 L 76.22546 110.28728 L 76.53209 110.28728 L 76.8387 110.28728 L 77.14531 110.28728 L 77.45193 110.28728 L 77.75854 110.28728 L 78.06514 110.28728 L 78.37175 110.28728 L 78.67838 110.28728 L 78.98499 110.28728 L 79.2916 110.28728 L 79.59822 110.28728 L 79.90483 110.28728 L 80.21144 110.28728 L 80.51807 110.28728 L 80.82468 110.28728 L 81.13127 110.28728 L 81.43788 110.28728 L 81.7445 110.28728 L 82.05112 110.28728 L 82.35773 110.28728 L 82.66435 110.28728 L 82.97096 110.28728 L 83.27757 110.28728 L 83.58418 110.28728 L 83.89081 110.28728 L 84.19742 110.28728 L 84.50401 110.28728 L 84.81062 110.28728 L 85.11725 110.28728 L 85.42386 110.28728 L 85.73047 110.28728 L 86.03708 110.28728 L 86.3437 110.28728 L 86.65031 110.28728 L 86.95692 110.28728 L 87.26353 110.28728 L 87.57016 110.28728 L 87.87675 110.28728 L 88.18336 110.28728 L 88.48997 110.28728 L 88.7966 110.28728 L 89.10321 110.28728 L 89.40982 110.28728 L 89.71645 110.28728 L 90.02306 110.28728 L 90.32967 110.28728 L 90.63628 110.28728 L 90.9429 110.28728 L 91.2495 110.28728 L 91.5561 110.28728 L 91.86273 110.28728 L 92.16934 110.28728 L 92.47595 110.28728 L 92.78258 110.28728 L 93.08919 110.28728 L 93.3958 110.28728 L 93.70241 110.28728 L 94.00903 110.28728 L 94.31563 110.28728 L 94.62224 110.28728 L 94.92886 110.28728 L 95.23547 110.28728 L 95.54208 110.28728 L 95.8487 110.28728 L 96.15532 110.28728 L 96.46193 110.28728 L 96.76854 110.28728 L 97.07516 110.28728 L 97.38177 110.28728 L 97.68837 110.28728 L 97.99498 110.28728 L 98.3016 110.28728 L 98.60822 110.28728 L 98.91483 110.28728 L 99.22144 110.28728 L 99.52806 110.28728 L 99.83467 110.28728 L 100.14128 110.28728 L 100.44789 110.28728 L 100.7545 110.28728 L 101.06111 110.28728 L 101.36772 110.28728 L 101.67433 110.28728 L 101.98094 110.28728 L 102.28757 110.28728 L 102.59418 110.28728 L 102.90079 110.28728 L 103.20741 110.28728 "/>
<path transform="matrix(1,0,0,-1,.199,181.02)" stroke-width="1" stroke-linecap="butt" stroke-miterlimit="10" stroke-linejoin="miter" fill="none" stroke="#000000" d="M 103.20805 83.38814 L 103.51466 83.38814 L 103.82126 83.38814 L 104.12787 83.38814 L 104.43448 83.38814 L 104.7411 83.38814 L 105.04771 83.38814 L 105.35432 83.38814 L 105.66093 83.38814 L 105.96756 83.38814 L 106.27417 83.38814 L 106.58078 83.38814 L 106.8874 83.38814 L 107.194 83.38814 L 107.50061 83.38814 L 107.80724 83.38814 L 108.11385 83.38814 L 108.42046 83.38814 L 108.72707 83.38814 L 109.03369 83.38814 L 109.3403 83.38814 L 109.64691 83.38814 L 109.95354 83.38814 L 110.26013 83.38814 L 110.56674 83.38814 L 110.87337 83.38814 L 111.17998 83.38814 L 111.48659 83.38814 L 111.7932 83.38814 L 112.09982 83.38814 L 112.40643 83.38814 L 112.71304 83.38814 L 113.01967 83.38814 L 113.32628 83.38814 L 113.63287 83.38814 L 113.93948 83.38814 L 114.24611 83.38814 L 114.55272 83.38814 L 114.85933 83.38814 L 115.16594 83.38814 L 115.47256 83.38814 L 115.77917 83.38814 L 116.08578 83.38814 L 116.3924 83.38814 L 116.69902 83.38814 L 117.00562 83.38814 L 117.31223 83.38814 L 117.61884 83.38814 L 117.92546 83.38814 L 118.23207 83.38814 L 118.53868 83.38814 L 118.84529 83.38814 L 119.15192 83.38814 L 119.45853 83.38814 L 119.76514 83.38814 L 120.07176 83.38814 L 120.37836 83.38814 L 120.68497 83.38814 L 120.99158 83.38814 L 121.2982 83.38814 L 121.60481 83.38814 L 121.91142 83.38814 L 122.21805 83.38814 L 122.52466 83.38814 L 122.83127 83.38814 L 123.1379 83.38814 L 123.44449 83.38814 L 123.7511 83.38814 L 124.05771 83.38814 L 124.36433 83.38814 L 124.67094 83.38814 L 124.97755 83.38814 L 125.28418 83.38814 L 125.59079 83.38814 L 125.8974 83.38814 L 126.20401 83.38814 L 126.51064 83.38814 L 126.81723 83.38814 L 127.12384 83.38814 L 127.43047 83.38814 L 127.73708 83.38814 L 128.04369 83.38814 L 128.3503 83.38814 L 128.65692 83.38814 L 128.96353 83.38814 L 129.27014 83.38814 L 129.57675 83.38814 L 129.88338 83.38814 L 130.18997 83.38814 L 130.49658 83.38814 L 130.80319 83.38814 L 131.1098 83.38814 L 131.41643 83.38814 L 131.72304 83.38814 L 132.02965 83.38814 L 132.33628 83.38814 L 132.64289 83.38814 L 132.9495 83.38814 L 133.2561 83.38814 L 133.56272 83.38814 "/>
<path transform="matrix(1,0,0,-1,.199,181.02)" stroke-width="1" stroke-linecap="butt" stroke-miterlimit="10" stroke-linejoin="miter" fill="none" stroke="#000000" d="M 133.56336 94.1478 L 133.86997 94.1478 L 134.17658 94.1478 L 134.48319 94.1478 L 134.7898 94.1478 L 135.09642 94.1478 L 135.40303 94.1478 L 135.70964 94.1478 L 136.01625 94.1478 L 136.32286 94.1478 L 136.62947 94.1478 L 136.93608 94.1478 L 137.2427 94.1478 L 137.54932 94.1478 L 137.85593 94.1478 L 138.16255 94.1478 L 138.46916 94.1478 L 138.77577 94.1478 L 139.08238 94.1478 L 139.38899 94.1478 L 139.6956 94.1478 L 140.00222 94.1478 L 140.30884 94.1478 L 140.61545 94.1478 L 140.92206 94.1478 L 141.22869 94.1478 L 141.5353 94.1478 L 141.8419 94.1478 L 142.14852 94.1478 L 142.45514 94.1478 L 142.76174 94.1478 L 143.06835 94.1478 L 143.37497 94.1478 L 143.68158 94.1478 L 143.98819 94.1478 L 144.2948 94.1478 L 144.60143 94.1478 L 144.90804 94.1478 L 145.21465 94.1478 L 145.52126 94.1478 L 145.82788 94.1478 L 146.13448 94.1478 L 146.44109 94.1478 L 146.7477 94.1478 L 147.05432 94.1478 L 147.36093 94.1478 L 147.66754 94.1478 L 147.97415 94.1478 L 148.28078 94.1478 L 148.58739 94.1478 L 148.894 94.1478 L 149.2006 94.1478 L 149.50722 94.1478 L 149.81383 94.1478 L 150.12044 94.1478 L 150.42707 94.1478 L 150.73368 94.1478 L 151.04029 94.1478 L 151.3469 94.1478 L 151.65352 94.1478 L 151.96013 94.1478 L 152.26674 94.1478 L 152.57335 94.1478 L 152.87996 94.1478 L 153.18657 94.1478 L 153.4932 94.1478 L 153.7998 94.1478 L 154.10642 94.1478 L 154.41303 94.1478 L 154.71965 94.1478 L 155.02626 94.1478 L 155.33287 94.1478 L 155.6395 94.1478 L 155.94609 94.1478 L 156.2527 94.1478 L 156.55931 94.1478 L 156.86594 94.1478 L 157.17255 94.1478 L 157.47916 94.1478 L 157.78578 94.1478 L 158.09239 94.1478 L 158.399 94.1478 L 158.70561 94.1478 L 159.01224 94.1478 L 159.31884 94.1478 L 159.62545 94.1478 L 159.93206 94.1478 L 160.23868 94.1478 L 160.54529 94.1478 L 160.8519 94.1478 L 161.15851 94.1478 L 161.46512 94.1478 L 161.77175 94.1478 L 162.07836 94.1478 L 162.38495 94.1478 L 162.69158 94.1478 L 162.99819 94.1478 L 163.3048 94.1478 L 163.6114 94.1478 L 163.91803 94.1478 "/>
<path transform="matrix(1,0,0,-1,.199,181.02)" stroke-width="1" stroke-linecap="butt" stroke-miterlimit="10" stroke-linejoin="miter" fill="none" stroke="#000000" d="M 42.49742 40.3495 L 42.80403 40.3495 L 43.11064 40.3495 L 43.41727 40.3495 L 43.72389 40.3495 L 44.0305 40.3495 L 44.33713 40.3495 L 44.64375 40.3495 L 44.95038 40.3495 L 45.25699 40.3495 L 45.56358 40.3495 L 45.87021 40.3495 L 46.17683 40.3495 L 46.48344 40.3495 L 46.79007 40.3495 L 47.0967 40.3495 L 47.40332 40.3495 L 47.70993 40.3495 L 48.01656 40.3495 L 48.32317 40.3495 L 48.62978 40.3495 L 48.93639 40.3495 L 49.24301 40.3495 L 49.54964 40.3495 L 49.85626 40.3495 L 50.16287 40.3495 L 50.4695 40.3495 L 50.77612 40.3495 L 51.08273 40.3495 L 51.38936 40.3495 L 51.69597 40.3495 L 52.00258 40.3495 L 52.3092 40.3495 L 52.61581 40.3495 L 52.92244 40.3495 L 53.22906 40.3495 L 53.53568 40.3495 L 53.8423 40.3495 L 54.14893 40.3495 L 54.45554 40.3495 L 54.76216 40.3495 L 55.06877 40.3495 L 55.37538 40.3495 L 55.682 40.3495 L 55.98862 40.3495 L 56.29524 40.3495 L 56.60187 40.3495 L 56.9085 40.3495 L 57.2151 40.3495 L 57.52171 40.3495 L 57.82834 40.3495 L 58.13496 40.3495 L 58.44156 40.3495 L 58.74818 40.3495 L 59.05481 40.3495 L 59.36143 40.3495 L 59.66805 40.3495 L 59.97467 40.3495 L 60.2813 40.3495 L 60.5879 40.3495 L 60.89452 40.3495 L 61.20114 40.3495 L 61.50777 40.3495 L 61.81438 40.3495 L 62.12099 40.3495 L 62.42761 40.3495 L 62.73424 40.3495 L 63.04085 40.3495 L 63.34747 40.3495 L 63.65408 40.3495 L 63.96071 40.3495 L 64.26733 40.3495 L 64.57394 40.3495 L 64.88055 40.3495 L 65.18718 40.3495 L 65.49379 40.3495 L 65.80042 40.3495 L 66.10704 40.3495 L 66.41365 40.3495 L 66.72028 40.3495 L 67.02689 40.3495 L 67.33351 40.3495 L 67.64014 40.3495 L 67.94675 40.3495 L 68.25336 40.3495 L 68.55998 40.3495 L 68.8666 40.3495 L 69.17322 40.3495 L 69.47984 40.3495 L 69.78647 40.3495 L 70.09308 40.3495 L 70.39969 40.3495 L 70.70631 40.3495 L 71.01294 40.3495 L 71.31955 40.3495 L 71.62616 40.3495 L 71.93279 40.3495 L 72.23941 40.3495 L 72.54602 40.3495 L 72.85263 40.3495 "/>
<path transform="matrix(1,0,0,-1,.199,181.02)" stroke-width="1" stroke-linecap="butt" stroke-miterlimit="10" stroke-linejoin="miter" fill="none" stroke="#000000" d="M 72.85274 40.3495 L 73.15935 40.3495 L 73.46596 40.3495 L 73.77257 40.3495 L 74.07918 40.3495 L 74.3858 40.3495 L 74.6924 40.3495 L 74.99901 40.3495 L 75.30562 40.3495 L 75.61224 40.3495 L 75.91885 40.3495 L 76.22546 40.3495 L 76.53209 40.3495 L 76.8387 40.3495 L 77.14531 40.3495 L 77.45193 40.3495 L 77.75854 40.3495 L 78.06514 40.3495 L 78.37175 40.3495 L 78.67838 40.3495 L 78.98499 40.3495 L 79.2916 40.3495 L 79.59822 40.3495 L 79.90483 40.3495 L 80.21144 40.3495 L 80.51807 40.3495 L 80.82468 40.3495 L 81.13127 40.3495 L 81.43788 40.3495 L 81.7445 40.3495 L 82.05112 40.3495 L 82.35773 40.3495 L 82.66435 40.3495 L 82.97096 40.3495 L 83.27757 40.3495 L 83.58418 40.3495 L 83.89081 40.3495 L 84.19742 40.3495 L 84.50401 40.3495 L 84.81062 40.3495 L 85.11725 40.3495 L 85.42386 40.3495 L 85.73047 40.3495 L 86.03708 40.3495 L 86.3437 40.3495 L 86.65031 40.3495 L 86.95692 40.3495 L 87.26353 40.3495 L 87.57016 40.3495 L 87.87675 40.3495 L 88.18336 40.3495 L 88.48997 40.3495 L 88.7966 40.3495 L 89.10321 40.3495 L 89.40982 40.3495 L 89.71645 40.3495 L 90.02306 40.3495 L 90.32967 40.3495 L 90.63628 40.3495 L 90.9429 40.3495 L 91.2495 40.3495 L 91.5561 40.3495 L 91.86273 40.3495 L 92.16934 40.3495 L 92.47595 40.3495 L 92.78258 40.3495 L 93.08919 40.3495 L 93.3958 40.3495 L 93.70241 40.3495 L 94.00903 40.3495 L 94.31563 40.3495 L 94.62224 40.3495 L 94.92886 40.3495 L 95.23547 40.3495 L 95.54208 40.3495 L 95.8487 40.3495 L 96.15532 40.3495 L 96.46193 40.3495 L 96.76854 40.3495 L 97.07516 40.3495 L 97.38177 40.3495 L 97.68837 40.3495 L 97.99498 40.3495 L 98.3016 40.3495 L 98.60822 40.3495 L 98.91483 40.3495 L 99.22144 40.3495 L 99.52806 40.3495 L 99.83467 40.3495 L 100.14128 40.3495 L 100.44789 40.3495 L 100.7545 40.3495 L 101.06111 40.3495 L 101.36772 40.3495 L 101.67433 40.3495 L 101.98094 40.3495 L 102.28757 40.3495 L 102.59418 40.3495 L 102.90079 40.3495 L 103.20741 40.3495 "/>
<path transform="matrix(1,0,0,-1,.199,181.02)" stroke-width="1" stroke-linecap="butt" stroke-miterlimit="10" stroke-linejoin="miter" fill="none" stroke="#000000" d="M 103.20805 40.3495 L 103.51466 40.3495 L 103.82126 40.3495 L 104.12787 40.3495 L 104.43448 40.3495 L 104.7411 40.3495 L 105.04771 40.3495 L 105.35432 40.3495 L 105.66093 40.3495 L 105.96756 40.3495 L 106.27417 40.3495 L 106.58078 40.3495 L 106.8874 40.3495 L 107.194 40.3495 L 107.50061 40.3495 L 107.80724 40.3495 L 108.11385 40.3495 L 108.42046 40.3495 L 108.72707 40.3495 L 109.03369 40.3495 L 109.3403 40.3495 L 109.64691 40.3495 L 109.95354 40.3495 L 110.26013 40.3495 L 110.56674 40.3495 L 110.87337 40.3495 L 111.17998 40.3495 L 111.48659 40.3495 L 111.7932 40.3495 L 112.09982 40.3495 L 112.40643 40.3495 L 112.71304 40.3495 L 113.01967 40.3495 L 113.32628 40.3495 L 113.63287 40.3495 L 113.93948 40.3495 L 114.24611 40.3495 L 114.55272 40.3495 L 114.85933 40.3495 L 115.16594 40.3495 L 115.47256 40.3495 L 115.77917 40.3495 L 116.08578 40.3495 L 116.3924 40.3495 L 116.69902 40.3495 L 117.00562 40.3495 L 117.31223 40.3495 L 117.61884 40.3495 L 117.92546 40.3495 L 118.23207 40.3495 L 118.53868 40.3495 L 118.84529 40.3495 L 119.15192 40.3495 L 119.45853 40.3495 L 119.76514 40.3495 L 120.07176 40.3495 L 120.37836 40.3495 L 120.68497 40.3495 L 120.99158 40.3495 L 121.2982 40.3495 L 121.60481 40.3495 L 121.91142 40.3495 L 122.21805 40.3495 L 122.52466 40.3495 L 122.83127 40.3495 L 123.1379 40.3495 L 123.44449 40.3495 L 123.7511 40.3495 L 124.05771 40.3495 L 124.36433 40.3495 L 124.67094 40.3495 L 124.97755 40.3495 L 125.28418 40.3495 L 125.59079 40.3495 L 125.8974 40.3495 L 126.20401 40.3495 L 126.51064 40.3495 L 126.81723 40.3495 L 127.12384 40.3495 L 127.43047 40.3495 L 127.73708 40.3495 L 128.04369 40.3495 L 128.3503 40.3495 L 128.65692 40.3495 L 128.96353 40.3495 L 129.27014 40.3495 L 129.57675 40.3495 L 129.88338 40.3495 L 130.18997 40.3495 L 130.49658 40.3495 L 130.80319 40.3495 L 131.1098 40.3495 L 131.41643 40.3495 L 131.72304 40.3495 L 132.02965 40.3495 L 132.33628 40.3495 L 132.64289 40.3495 L 132.9495 40.3495 L 133.2561 40.3495 L 133.56272 40.3495 "/>
<path transform="matrix(1,0,0,-1,.199,181.02)" stroke-width="1" stroke-linecap="butt" stroke-miterlimit="10" stroke-linejoin="miter" fill="none" stroke="#000000" d="M 133.56336 40.3495 L 133.86997 40.3495 L 134.17658 40.3495 L 134.48319 40.3495 L 134.7898 40.3495 L 135.09642 40.3495 L 135.40303 40.3495 L 135.70964 40.3495 L 136.01625 40.3495 L 136.32286 40.3495 L 136.62947 40.3495 L 136.93608 40.3495 L 137.2427 40.3495 L 137.54932 40.3495 L 137.85593 40.3495 L 138.16255 40.3495 L 138.46916 40.3495 L 138.77577 40.3495 L 139.08238 40.3495 L 139.38899 40.3495 L 139.6956 40.3495 L 140.00222 40.3495 L 140.30884 40.3495 L 140.61545 40.3495 L 140.92206 40.3495 L 141.22869 40.3495 L 141.5353 40.3495 L 141.8419 40.3495 L 142.14852 40.3495 L 142.45514 40.3495 L 142.76174 40.3495 L 143.06835 40.3495 L 143.37497 40.3495 L 143.68158 40.3495 L 143.98819 40.3495 L 144.2948 40.3495 L 144.60143 40.3495 L 144.90804 40.3495 L 145.21465 40.3495 L 145.52126 40.3495 L 145.82788 40.3495 L 146.13448 40.3495 L 146.44109 40.3495 L 146.7477 40.3495 L 147.05432 40.3495 L 147.36093 40.3495 L 147.66754 40.3495 L 147.97415 40.3495 L 148.28078 40.3495 L 148.58739 40.3495 L 148.894 40.3495 L 149.2006 40.3495 L 149.50722 40.3495 L 149.81383 40.3495 L 150.12044 40.3495 L 150.42707 40.3495 L 150.73368 40.3495 L 151.04029 40.3495 L 151.3469 40.3495 L 151.65352 40.3495 L 151.96013 40.3495 L 152.26674 40.3495 L 152.57335 40.3495 L 152.87996 40.3495 L 153.18657 40.3495 L 153.4932 40.3495 L 153.7998 40.3495 L 154.10642 40.3495 L 154.41303 40.3495 L 154.71965 40.3495 L 155.02626 40.3495 L 155.33287 40.3495 L 155.6395 40.3495 L 155.94609 40.3495 L 156.2527 40.3495 L 156.55931 40.3495 L 156.86594 40.3495 L 157.17255 40.3495 L 157.47916 40.3495 L 157.78578 40.3495 L 158.09239 40.3495 L 158.399 40.3495 L 158.70561 40.3495 L 159.01224 40.3495 L 159.31884 40.3495 L 159.62545 40.3495 L 159.93206 40.3495 L 160.23868 40.3495 L 160.54529 40.3495 L 160.8519 40.3495 L 161.15851 40.3495 L 161.46512 40.3495 L 161.77175 40.3495 L 162.07836 40.3495 L 162.38495 40.3495 L 162.69158 40.3495 L 162.99819 40.3495 L 163.3048 40.3495 L 163.6114 40.3495 L 163.91803 40.3495 "/>
<path transform="matrix(1,0,0,-1,.199,181.02)" stroke-width="1" stroke-linecap="butt" stroke-miterlimit="10" stroke-linejoin="miter" fill="none" stroke="#000000" d="M 42.49742 40.3495 L 42.49742 99.52762 "/>
<path transform="matrix(1,0,0,-1,.199,181.02)" stroke-width="1" stroke-linecap="butt" stroke-miterlimit="10" stroke-linejoin="miter" fill="none" stroke="#000000" d="M 72.85274 40.3495 L 72.85274 110.28728 "/>
<path transform="matrix(1,0,0,-1,.199,181.02)" stroke-width="1" stroke-linecap="butt" stroke-miterlimit="10" stroke-linejoin="miter" fill="none" stroke="#000000" d="M 103.20805 40.3495 L 103.20805 110.28728 "/>
<path transform="matrix(1,0,0,-1,.199,181.02)" stroke-width="1" stroke-linecap="butt" stroke-miterlimit="10" stroke-linejoin="miter" fill="none" stroke="#000000" d="M 133.56336 40.3495 L 133.56336 94.1478 "/>
<path transform="matrix(1,0,0,-1,.199,181.02)" stroke-width="1" stroke-linecap="butt" stroke-miterlimit="10" stroke-linejoin="miter" fill="none" stroke="#000000" d="M 163.91867 40.3495 L 163.91867 94.1478 "/>
<path transform="matrix(1,0,0,-1,.199,181.02)" stroke-width="1" stroke-linecap="butt" stroke-miterlimit="10" stroke-linejoin="miter" fill="none" stroke="#000000" d="M 12.14212 13.90865 L 12.14212 147.4878 "/>
<path transform="matrix(0,1,1,0,12.341121,167.11136)" stroke-width="1" stroke-linecap="round" stroke-linejoin="round" fill="none" stroke="#000000" d="M -1.19551 1.59401 C -1.09587 .99626 0 .09961 .29886 0 C 0 -.09961 -1.09587 -.99626 -1.19551 -1.59401 "/>
<path transform="matrix(0,-1,-1,0,12.341121,33.53221)" stroke-width="1" stroke-linecap="round" stroke-linejoin="round" fill="none" stroke="#000000" d="M -1.19551 1.59401 C -1.09587 .99626 0 .09961 .29886 0 C 0 -.09961 -1.09587 -.99626 -1.19551 -1.59401 "/>
<path transform="matrix(1,0,0,-1,.199,181.02)" stroke-width="1" stroke-linecap="butt" stroke-miterlimit="10" stroke-linejoin="miter" fill="none" stroke="#000000" d="M .45827 40.3495 L 194.27399 40.3495 "/>
<path transform="matrix(-1,0,0,1,.65727,140.6705)" stroke-width="1" stroke-linecap="round" stroke-linejoin="round" fill="none" stroke="#000000" d="M -1.19551 1.59401 C -1.09587 .99626 0 .09961 .29886 0 C 0 -.09961 -1.09587 -.99626 -1.19551 -1.59401 "/>
<symbol id="font_6_2">
<path d="M .293 .41000004 L .16500002 .44100005 C .10300001 .45600004 .064 .51000007 .064 .568 C .064 .6380001 .11800001 .69900009 .19600001 .69900009 C .36300005 .69900009 .38500003 .535 .39100004 .49000005 C .39200003 .48400004 .39200003 .47800005 .40300004 .47800005 C .41600005 .47800005 .41600005 .48300005 .41600005 .50200006 L .41600005 .70300009 C .41600005 .72 .41600005 .72700008 .40500004 .72700008 C .39800004 .72700008 .397 .7260001 .39000003 .71400007 L .35500003 .65700009 C .32500003 .68600007 .284 .72700008 .19500003 .72700008 C .084 .72700008 0 .63900008 0 .53300008 C 0 .45000006 .053000004 .37700004 .13100001 .35000003 C .14200002 .34600003 .19300002 .33400003 .263 .31700004 C .29000003 .31000004 .32000003 .30300004 .34800003 .26600004 C .36900003 .24000001 .37900005 .207 .37900005 .17400001 C .37900005 .103 .32900004 .031000004 .24500004 .031000004 C .21600002 .031000004 .14000002 .036000004 .087000008 .085 C .029 .13900002 .026 .20300001 .024999999 .23900001 C .024000004 .24900002 .016000003 .24900002 .013000004 .24900002 C 0 .24900002 0 .24200002 0 .224 L 0 .024000003 C 0 .007000001 0 0 .011 0 C .018 0 .019000002 .0020000004 .026 .013000001 C .026 .014000001 .029 .017 .062000008 .07 C .093 .036000004 .157 0 .24600002 0 C .36300005 0 .44300003 .098000008 .44300003 .208 C .44300003 .30800004 .37700004 .39000006 .293 .41000004 Z "/>
</symbol>
<symbol id="font_6_11">
<path d="M .35900004 .09 L .35900004 0 L .503 .011000001 L .503 .042000005 C .43300004 .042000005 .425 .049000004 .425 .098000008 L .425 .45300005 L .278 .44200004 L .278 .411 C .34800003 .411 .356 .404 .356 .35500003 L .356 .17700002 C .356 .09 .308 .022000002 .23500002 .022000002 C .15100001 .022000002 .147 .069000009 .147 .12100001 L .147 .45300005 L 0 .44200004 L 0 .411 C .07800001 .411 .07800001 .40800003 .07800001 .31900005 L .07800001 .16900002 C .07800001 .091000009 .07800001 0 .23000002 0 C .286 0 .33 .028 .35900004 .09 Z "/>
</symbol>
<symbol id="font_6_b">
<path d="M .07800001 .344 L .07800001 .076000008 C .07800001 .031000002 .067 .031000002 0 .031000002 L 0 0 C .035 .001 .08600001 .003 .113000009 .003 C .139 .003 .191 .001 .225 0 L .225 .031000002 C .158 .031000002 .147 .031000002 .147 .076000008 L .147 .26000003 C .147 .36400003 .218 .42000003 .282 .42000003 C .345 .42000003 .356 .36600004 .356 .30900003 L .356 .076000008 C .356 .031000002 .345 .031000002 .278 .031000002 L .278 0 C .31300003 .001 .36400003 .003 .391 .003 C .41700004 .003 .46900005 .001 .503 0 L .503 .031000002 C .43600003 .031000002 .425 .031000002 .425 .076000008 L .425 .26000003 C .425 .36400003 .496 .42000003 .56 .42000003 C .623 .42000003 .634 .36600004 .634 .30900003 L .634 .076000008 C .634 .031000002 .623 .031000002 .556 .031000002 L .556 0 C .591 .001 .642 .003 .669 .003 C .69500008 .003 .74700006 .001 .781 0 L .781 .031000002 C .72900006 .031000002 .70400008 .031000002 .703 .061000006 L .703 .252 C .703 .33800004 .703 .36900003 .67200008 .40500004 C .65800008 .42200003 .625 .44200004 .56700006 .44200004 C .48300005 .44200004 .439 .38200004 .42200003 .344 C .40800003 .43100003 .33400003 .44200004 .289 .44200004 C .216 .44200004 .169 .39900003 .141 .337 L .141 .44200004 L 0 .43100003 L 0 .4 C .07000001 .4 .07800001 .393 .07800001 .344 Z "/>
</symbol>
<symbol id="font_6_d">
<path d="M .44300003 .22500003 C .44300003 .35300002 .34300003 .45900003 .222 .45900003 C .097 .45900003 0 .35000003 0 .22500003 C 0 .096 .104 0 .22100002 0 C .342 0 .44300003 .098000008 .44300003 .22500003 M .222 .025000003 C .17900002 .025000003 .135 .046 .10800001 .092 C .083000008 .136 .083000008 .19700001 .083000008 .23300003 C .083000008 .272 .083000008 .32600004 .10700001 .37000004 C .134 .41600005 .18100001 .43700005 .22100002 .43700005 C .26500003 .43700005 .30800004 .41500003 .33400003 .37200005 C .36 .32900004 .36 .27100004 .36 .23300003 C .36 .19700001 .36 .143 .33800004 .09900001 C .316 .054 .272 .025000003 .222 .025000003 Z "/>
</symbol>
<symbol id="font_6_6">
<path d="M .14200002 .43100003 L .14200002 .54700008 C .14200002 .63500007 .19 .683 .23400003 .683 C .23700002 .683 .25200004 .683 .26700003 .67600008 C .25500003 .67200008 .23700002 .65900006 .23700002 .634 C .23700002 .611 .25300003 .591 .28000004 .591 C .30900003 .591 .32400004 .611 .32400004 .63500007 C .32400004 .67200008 .28700004 .70500007 .23400003 .70500007 C .164 .70500007 .079 .652 .079 .546 L .079 .43100003 L 0 .43100003 L 0 .4 L .079 .4 L .079 .076000008 C .079 .031000002 .068 .031000002 .001000002 .031000002 L .001000002 0 C .040000008 .001 .087000008 .003 .115 .003 C .155 .003 .20200002 .003 .24200002 0 L .24200002 .031000002 L .22100002 .031000002 C .14700002 .031000002 .14500001 .042000005 .14500001 .078 L .14500001 .4 L .25900004 .4 L .25900004 .43100003 L .14200002 .43100003 Z "/>
</symbol>
<symbol id="font_6_10">
<path d="M .15400002 .411 L .29700003 .411 L .29700003 .44200004 L .15400002 .44200004 L .15400002 .626 L .12900001 .626 C .12799999 .544 .098000008 .43700005 0 .43300004 L 0 .411 L .085 .411 L .085 .135 C .085 .012000001 .178 0 .21400002 0 C .28500004 0 .31300003 .071 .31300003 .135 L .31300003 .19200002 L .28800003 .19200002 L .28800003 .13700001 C .28800003 .063 .25800003 .025000003 .22100002 .025000003 C .15400002 .025000003 .15400002 .116000007 .15400002 .13300002 L .15400002 .411 Z "/>
</symbol>
<symbol id="font_6_8">
<path d="M .07800001 .076000008 C .07800001 .031000002 .067 .031000002 0 .031000002 L 0 0 C .035 .001 .08600001 .003 .113000009 .003 C .139 .003 .191 .001 .225 0 L .225 .031000002 C .158 .031000002 .147 .031000002 .147 .076000008 L .147 .26000003 C .147 .36400003 .218 .42000003 .282 .42000003 C .345 .42000003 .356 .36600004 .356 .30900003 L .356 .076000008 C .356 .031000002 .345 .031000002 .278 .031000002 L .278 0 C .31300003 .001 .36400003 .003 .391 .003 C .41700004 .003 .46900005 .001 .503 0 L .503 .031000002 C .451 .031000002 .42600004 .031000002 .425 .061000006 L .425 .252 C .425 .33800004 .425 .36900003 .39400003 .40500004 C .38000003 .42200003 .347 .44200004 .289 .44200004 C .20500002 .44200004 .161 .38200004 .14400001 .344 L .14400001 .694 L 0 .683 L 0 .652 C .07000001 .652 .07800001 .64500007 .07800001 .596 L .07800001 .076000008 Z "/>
</symbol>
<symbol id="font_6_5">
<path d="M .08400001 .263 C .09 .41200004 .17400001 .43700005 .20800002 .43700005 C .31100003 .43700005 .321 .30200003 .321 .263 L .08400001 .263 M .083000008 .24200002 L .36200003 .24200002 C .38400004 .24200002 .38700003 .24200002 .38700003 .263 C .38700003 .36200003 .33300004 .45900003 .20800002 .45900003 C .09200001 .45900003 0 .35600005 0 .23100002 C 0 .097 .105000007 0 .22000002 0 C .342 0 .38700003 .111 .38700003 .13000001 C .38700003 .14000002 .379 .14200002 .374 .14200002 C .365 .14200002 .36300005 .136 .36100004 .128 C .326 .025000003 .236 .025000003 .22600001 .025000003 C .17600002 .025000003 .136 .055000005 .113000009 .092 C .083000008 .14000002 .083000008 .20600002 .083000008 .24200002 Z "/>
</symbol>
<symbol id="font_6_3">
<path d="M .291 .087000008 C .29500003 .047000003 .32200004 .005000001 .36900003 .005000001 C .39000003 .005000001 .45100004 .019000002 .45100004 .1 L .45100004 .15600002 L .42600004 .15600002 L .42600004 .1 C .42600004 .042000005 .40100003 .036000004 .39000003 .036000004 C .35700003 .036000004 .35300002 .081 .35300002 .086 L .35300002 .286 C .35300002 .328 .35300002 .367 .31700004 .404 C .27800004 .44300003 .22800002 .45900003 .18 .45900003 C .098 .45900003 .029 .41200004 .029 .34600003 C .029 .316 .049000004 .29900003 .075 .29900003 C .10300001 .29900003 .121 .31900005 .121 .34500004 C .121 .35700003 .116000007 .39000003 .07 .39100004 C .09700001 .42600004 .146 .43700005 .178 .43700005 C .22700003 .43700005 .284 .39800004 .284 .30900003 L .284 .272 C .23300001 .26900003 .16300002 .26600004 .1 .23600002 C .024999999 .20200002 0 .15000002 0 .106000009 C 0 .025000003 .09700001 0 .16 0 C .22600001 0 .272 .040000004 .291 .087000008 M .284 .25100003 L .284 .15100001 C .284 .056 .21200001 .022000002 .167 .022000002 C .11800001 .022000002 .077 .057000005 .077 .107 C .077 .16200002 .11900001 .24500002 .284 .25100003 Z "/>
</symbol>
<symbol id="font_6_e">
<path d="M .13900002 .33200003 L .13900002 .44200004 L 0 .43100003 L 0 .4 C .07000001 .4 .07800001 .393 .07800001 .344 L .07800001 .076000008 C .07800001 .031000002 .067 .031000002 0 .031000002 L 0 0 C .039 .001 .08600001 .003 .11400001 .003 C .15400002 .003 .20100002 .003 .24100003 0 L .24100003 .031000002 L .22000002 .031000002 C .14600002 .031000002 .14400001 .042000005 .14400001 .078 L .14400001 .23200001 C .14400001 .33100004 .18600002 .42000003 .26200003 .42000003 C .26900003 .42000003 .27100004 .42000003 .27300004 .41900004 C .27 .418 .25000004 .40600003 .25000004 .38000003 C .25000004 .35200004 .27100004 .337 .293 .337 C .31100003 .337 .33600004 .349 .33600004 .381 C .33600004 .41300003 .305 .44200004 .26200003 .44200004 C .18900001 .44200004 .15300001 .37500004 .13900002 .33200003 Z "/>
</symbol>
<symbol id="font_6_f">
<path d="M .17500001 .20500002 C .197 .20100002 .279 .18500002 .279 .113000009 C .279 .062000004 .24400002 .022000002 .16600001 .022000002 C .082 .022000002 .046000005 .079 .027000003 .16400002 C .024000004 .17700002 .023000002 .18100001 .013000004 .18100001 C 0 .18100001 0 .17400001 0 .15600002 L 0 .024 C 0 .0070000009 0 0 .011000004 0 C .016000003 0 .017 .0010000002 .036000007 .020000002 C .038000004 .022000002 .038000004 .024 .056 .043 C .1 .0010000002 .14500001 0 .16600001 0 C .28100003 0 .32700003 .067 .32700003 .13900002 C .32700003 .19200002 .29700003 .22200002 .28500004 .23400001 C .25200004 .26600004 .213 .27400003 .171 .28200004 C .115 .293 .048 .30600003 .048 .36400003 C .048 .39900003 .07400001 .44000004 .16 .44000004 C .27 .44000004 .27500005 .35000003 .277 .31900005 C .27800004 .31000004 .28700004 .31000004 .28900004 .31000004 C .30200003 .31000004 .30200003 .31500004 .30200003 .33400003 L .30200003 .43500004 C .30200003 .45200003 .30200003 .45900003 .291 .45900003 C .286 .45900003 .284 .45900003 .27100004 .44700004 C .26800005 .44300003 .25800003 .43400003 .254 .43100003 C .21600002 .45900003 .17500001 .45900003 .16 .45900003 C .038000004 .45900003 0 .39200003 0 .33600004 C 0 .30100004 .016000003 .27300004 .043000007 .25100003 C .075 .22500003 .10300001 .21900001 .17500001 .20500002 Z "/>
</symbol>
<symbol id="font_6_4">
<path d="M .083000008 .22900002 C .083000008 .39200003 .16500002 .43400003 .218 .43400003 C .227 .43400003 .29 .43300004 .32500003 .397 C .284 .39400003 .278 .36400003 .278 .351 C .278 .32500003 .296 .305 .324 .305 C .35 .305 .37 .32200004 .37 .35200004 C .37 .42000003 .294 .45900003 .21700001 .45900003 C .092 .45900003 0 .351 0 .22700002 C 0 .09900001 .099 0 .215 0 C .349 0 .381 .120000008 .381 .13000001 C .381 .14000002 .37100003 .14000002 .368 .14000002 C .359 .14000002 .35700003 .136 .35500003 .13000001 C .326 .037 .261 .025000003 .224 .025000003 C .171 .025000003 .083000008 .068 .083000008 .22900002 Z "/>
</symbol>
<symbol id="font_6_c">
<path d="M .07800001 .344 L .07800001 .076000008 C .07800001 .031000002 .067 .031000002 0 .031000002 L 0 0 C .035 .001 .08600001 .003 .113000009 .003 C .139 .003 .191 .001 .225 0 L .225 .031000002 C .158 .031000002 .147 .031000002 .147 .076000008 L .147 .26000003 C .147 .36400003 .218 .42000003 .282 .42000003 C .345 .42000003 .356 .36600004 .356 .30900003 L .356 .076000008 C .356 .031000002 .345 .031000002 .278 .031000002 L .278 0 C .31300003 .001 .36400003 .003 .391 .003 C .41700004 .003 .46900005 .001 .503 0 L .503 .031000002 C .451 .031000002 .42600004 .031000002 .425 .061000006 L .425 .252 C .425 .33800004 .425 .36900003 .39400003 .40500004 C .38000003 .42200003 .347 .44200004 .289 .44200004 C .216 .44200004 .169 .39900003 .141 .337 L .141 .44200004 L 0 .43100003 L 0 .4 C .07000001 .4 .07800001 .393 .07800001 .344 Z "/>
</symbol>
<symbol id="font_6_7">
<path d="M .19400002 .37800003 C .10700001 .37800003 .10700001 .47800005 .10700001 .50100007 C .10700001 .52800008 .10800001 .56 .12300001 .58500006 C .13100001 .59700009 .15400002 .62500008 .19400002 .62500008 C .28100003 .62500008 .28100003 .52500006 .28100003 .50200006 C .28100003 .47500003 .28000004 .44300003 .26500003 .41800005 C .25700004 .40600003 .23400003 .37800003 .19400002 .37800003 M .07800001 .33900003 C .07800001 .34300003 .07800001 .36600004 .095 .38600005 C .134 .35800005 .17500001 .35500003 .19400002 .35500003 C .28700004 .35500003 .356 .42400003 .356 .50100007 C .356 .53800007 .34000004 .57500007 .31500004 .59800007 C .351 .632 .38700003 .637 .40500004 .637 C .40700004 .637 .41200004 .637 .41500003 .63600006 C .404 .632 .39900003 .62100008 .39900003 .609 C .39900003 .592 .41200004 .58000007 .42800004 .58000007 C .43800003 .58000007 .45700003 .587 .45700003 .61 C .45700003 .62700006 .44500003 .65900006 .40600003 .65900006 C .38600005 .65900006 .342 .65300008 .3 .61200007 C .25800003 .64500007 .21600002 .64800009 .19400002 .64800009 C .10100001 .64800009 .032 .57900008 .032 .50200006 C .032 .458 .054 .42000003 .07900001 .39900003 C .066 .384 .048000006 .351 .048000006 .316 C .048000006 .28500004 .061 .24700001 .09200001 .22700002 C .032 .21000001 0 .16700001 0 .127 C 0 .055000009 .09900001 0 .22100002 0 C .33900003 0 .44300003 .051000015 .44300003 .12900001 C .44300003 .164 .42900003 .21500002 .37800003 .24300002 C .32500003 .27100004 .26700003 .27100004 .20600002 .27100004 C .18100001 .27100004 .13800001 .27100004 .13100001 .272 C .09900001 .27600003 .07800001 .307 .07800001 .33900003 M .222 .023000002 C .12100001 .023000002 .052000006 .074000019 .052000006 .127 C .052000006 .17300001 .09 .21000001 .134 .21300002 L .19300002 .21300002 C .279 .21300002 .39100004 .21300002 .39100004 .127 C .39100004 .073000017 .32000003 .023000002 .222 .023000002 Z "/>
</symbol>
<symbol id="font_6_a">
<path d="M .144 .694 L 0 .683 L 0 .652 C .07000001 .652 .07800001 .64500007 .07800001 .596 L .07800001 .076000008 C .07800001 .031000002 .067 .031000002 0 .031000002 L 0 0 C .033 .001 .086 .003 .11100001 .003 C .136 .003 .185 .001 .22200004 0 L .22200004 .031000002 C .155 .031000002 .144 .031000002 .144 .076000008 L .144 .694 Z "/>
</symbol>
<use xlink:href="#font_6_2" transform="matrix(9.9626,0,0,-9.9626,29.714905,167.59018)"/>
<use xlink:href="#font_6_11" transform="matrix(9.9626,0,0,-9.9626,35.015008,167.48059)"/>
<use xlink:href="#font_6_b" transform="matrix(9.9626,0,0,-9.9626,40.554216,167.371)"/>
<use xlink:href="#font_6_d" transform="matrix(9.9626,0,0,-9.9626,52.13076,167.48059)"/>
<use xlink:href="#font_6_6" transform="matrix(9.9626,0,0,-9.9626,57.161874,167.371)"/>
<use xlink:href="#font_6_10" transform="matrix(9.9626,0,0,-9.9626,63.39846,167.48059)"/>
<use xlink:href="#font_6_8" transform="matrix(9.9626,0,0,-9.9626,67.40343,167.371)"/>
<use xlink:href="#font_6_5" transform="matrix(9.9626,0,0,-9.9626,72.89282,167.48059)"/>
<use xlink:href="#font_6_3" transform="matrix(9.9626,0,0,-9.9626,80.783199,167.48059)"/>
<use xlink:href="#font_6_e" transform="matrix(9.9626,0,0,-9.9626,85.62502,167.371)"/>
<use xlink:href="#font_6_5" transform="matrix(9.9626,0,0,-9.9626,89.530368,167.48059)"/>
<use xlink:href="#font_6_3" transform="matrix(9.9626,0,0,-9.9626,94.09323,167.48059)"/>
<use xlink:href="#font_6_f" transform="matrix(9.9626,0,0,-9.9626,98.98487,167.48059)"/>
<use xlink:href="#font_6_d" transform="matrix(9.9626,0,0,-9.9626,106.177867,167.48059)"/>
<use xlink:href="#font_6_6" transform="matrix(9.9626,0,0,-9.9626,111.20898,167.371)"/>
<use xlink:href="#font_6_10" transform="matrix(9.9626,0,0,-9.9626,117.445568,167.48059)"/>
<use xlink:href="#font_6_8" transform="matrix(9.9626,0,0,-9.9626,121.45052,167.371)"/>
<use xlink:href="#font_6_5" transform="matrix(9.9626,0,0,-9.9626,126.94988,167.48059)"/>
<use xlink:href="#font_6_e" transform="matrix(9.9626,0,0,-9.9626,134.69083,167.371)"/>
<use xlink:href="#font_6_5" transform="matrix(9.9626,0,0,-9.9626,138.59616,167.48059)"/>
<use xlink:href="#font_6_4" transform="matrix(9.9626,0,0,-9.9626,143.07935,167.48059)"/>
<use xlink:href="#font_6_10" transform="matrix(9.9626,0,0,-9.9626,147.3533,167.48059)"/>
<use xlink:href="#font_6_3" transform="matrix(9.9626,0,0,-9.9626,151.4579,167.48059)"/>
<use xlink:href="#font_6_c" transform="matrix(9.9626,0,0,-9.9626,156.33957,167.371)"/>
<use xlink:href="#font_6_7" transform="matrix(9.9626,0,0,-9.9626,161.83892,169.4233)"/>
<use xlink:href="#font_6_a" transform="matrix(9.9626,0,0,-9.9626,166.87003,167.371)"/>
<use xlink:href="#font_6_5" transform="matrix(9.9626,0,0,-9.9626,169.58982,167.48059)"/>
<use xlink:href="#font_6_f" transform="matrix(9.9626,0,0,-9.9626,174.06304,167.48059)"/>
<symbol id="font_4_3">
<path d="M .45700003 .586 C .461 .6 .461 .602 .461 .609 C .461 .62700006 .447 .63600006 .432 .63600006 C .42200003 .63600006 .40600003 .63 .397 .615 C .395 .61 .387 .579 .38300003 .561 C .37600003 .535 .36900003 .508 .363 .48100005 L .318 .301 C .314 .286 .271 .21600002 .20500002 .21600002 C .15400002 .21600002 .143 .26000003 .143 .29700003 C .143 .34300003 .16000001 .40500004 .194 .49300004 C .21000001 .53400006 .21400002 .545 .21400002 .56500008 C .21400002 .61 .18200001 .6470001 .13200002 .6470001 C .037 .6470001 0 .50200006 0 .49300004 C 0 .48300005 .01 .48300005 .012 .48300005 C .022000002 .48300005 .023 .485 .028000003 .50100007 C .055000009 .595 .095000009 .625 .12900001 .625 C .13700001 .625 .15400002 .625 .15400002 .59300008 C .15400002 .568 .14400001 .54200008 .13700001 .523 C .097 .41700004 .079 .36 .079 .31300003 C .079 .224 .142 .194 .201 .194 C .24000003 .194 .274 .21100001 .30200003 .23900002 C .289 .187 .277 .13800001 .237 .08500001 C .21100001 .051 .17300001 .022 .127 .022 C .113000009 .022 .068 .025000006 .051000008 .06400001 C .067 .06400001 .080000009 .06400001 .094000007 .076000008 C .104 .08500001 .11400001 .098000008 .11400001 .117000009 C .11400001 .148 .087000008 .15200001 .07700001 .15200001 C .054000006 .15200001 .021 .136 .021 .087000008 C .021 .037 .065000008 0 .127 0 C .23 0 .333 .091000009 .361 .20400001 L .45700003 .586 Z "/>
</symbol>
<use xlink:href="#font_4_3" transform="matrix(9.9626,0,0,-9.9626,10.008916,30.914343)"/>
</g>
<symbol id="font_6_1">
<path d="M .18900001 .37500004 L .18900001 .63400009 C .18900001 .65700009 .18900001 .669 .21100001 .67200008 C .22100002 .674 .25000004 .674 .27 .674 C .36 .674 .47200004 .67 .47200004 .52500006 C .47200004 .45600004 .448 .37500004 .3 .37500004 L .18900001 .37500004 M .40000005 .36200003 C .497 .38600005 .575 .44700004 .575 .52500006 C .575 .62100008 .46100004 .70500007 .314 .70500007 L 0 .70500007 L 0 .674 L .024000004 .674 C .10100001 .674 .103000018 .66300007 .103000018 .62700006 L .103000018 .1 C .103000018 .064 .10100001 .053000004 .024000004 .053000004 L 0 .053000004 L 0 .022000002 C .036000004 .025000003 .10700001 .025000003 .14600002 .025000003 C .18500002 .025000003 .256 .025000003 .29200004 .022000002 L .29200004 .053000004 L .268 .053000004 C .19100002 .053000004 .18900001 .064 .18900001 .1 L .18900001 .35300005 L .30400003 .35300005 C .32000003 .35300005 .36200003 .35300005 .397 .31900005 C .43500004 .28300003 .43500004 .252 .43500004 .185 C .43500004 .120000008 .43500004 .080000009 .47600005 .042000005 C .517 .006000001 .572 0 .602 0 C .68 0 .697 .082 .697 .11000001 C .697 .116000007 .697 .127 .684 .127 C .673 .127 .673 .118 .672 .111 C .666 .040000004 .631 .022000002 .606 .022000002 C .557 .022000002 .549 .07300001 .535 .16600001 L .522 .246 C .504 .31000004 .455 .34300003 .40000005 .36200003 Z "/>
</symbol>
<symbol id="font_6_9">
<path d="M .144 .44200004 L .0040000008 .43100003 L .0040000008 .4 C .069000009 .4 .07800001 .39400003 .07800001 .34500004 L .07800001 .076000008 C .07800001 .031000002 .067 .031000002 0 .031000002 L 0 0 C .032000007 .001 .086 .003 .11000001 .003 C .14500001 .003 .18 .001 .21400002 0 L .21400002 .031000002 C .148 .031000002 .144 .036000004 .144 .075 L .144 .44200004 M .148 .61600008 C .148 .648 .123 .669 .095000009 .669 C .064 .669 .042000005 .642 .042000005 .61600008 C .042000005 .58900007 .064 .563 .095000009 .563 C .123 .563 .148 .58400008 .148 .61600008 Z "/>
</symbol>
<use xlink:href="#font_6_1" transform="matrix(9.9626,0,0,-9.9626,66.89669,10.347183)"/>
<use xlink:href="#font_6_9" transform="matrix(9.9626,0,0,-9.9626,74.209239,10.128006)"/>
<use xlink:href="#font_6_5" transform="matrix(9.9626,0,0,-9.9626,76.92902,10.237595)"/>
<use xlink:href="#font_6_b" transform="matrix(9.9626,0,0,-9.9626,81.392269,10.128006)"/>
<use xlink:href="#font_6_3" transform="matrix(9.9626,0,0,-9.9626,89.79073,10.237595)"/>
<use xlink:href="#font_6_c" transform="matrix(9.9626,0,0,-9.9626,94.67241,10.128006)"/>
<use xlink:href="#font_6_c" transform="matrix(9.9626,0,0,-9.9626,100.21162,10.128006)"/>
<use xlink:href="#font_6_2" transform="matrix(9.9626,0,0,-9.9626,109.30747,10.347183)"/>
<use xlink:href="#font_6_11" transform="matrix(9.9626,0,0,-9.9626,114.607578,10.237595)"/>
<use xlink:href="#font_6_b" transform="matrix(9.9626,0,0,-9.9626,120.14678,10.128006)"/>
</svg>
