<?xml version="1.0" encoding="UTF-8" standalone="no"?>
<!DOCTYPE svg PUBLIC "-//W3C//DTD SVG 1.1//EN" "http://www.w3.org/Graphics/SVG/1.1/DTD/svg11.dtd">
<svg xmlns="http://www.w3.org/2000/svg" xmlns:xlink="http://www.w3.org/1999/xlink" version="1.1" width="194.67pt" height="186.61pt" viewBox="0 0 194.67 186.61">
<path transform="matrix(1,0,0,-1,.199,170.725)" stroke-width=".19925" stroke-linecap="butt" stroke-miterlimit="10" stroke-linejoin="miter" fill="none" stroke="#929292" d="M 19.42737 -2.12589 L 19.42737 2.12589 M 97.13684 -2.12589 L 97.13684 2.12589 M 174.84632 -2.12589 L 174.84632 2.12589 "/>
<path transform="matrix(1,0,0,-1,.199,170.725)" stroke-width=".3985" stroke-linecap="butt" stroke-miterlimit="10" stroke-linejoin="miter" fill="none" stroke="#000000" d="M 0 0 L 192.28116 0 "/>
<path transform="matrix(1,0,0,-1,192.48017,170.725)" d="M 1.99252 0 L -1.19551 1.59401 L 0 0 L -1.19551 -1.59401 "/>
<symbol id="font_0_2">
<path d="M .33300004 .38900004 C .31500004 .42600004 .286 .45300005 .24100001 .45300005 C .124 .45300005 0 .30600003 0 .16000001 C 0 .06600001 .055000005 0 .133 0 C .153 0 .20300001 .0040000008 .263 .075 C .27100004 .033000005 .30600003 0 .35400004 0 C .38900004 0 .41200004 .023000002 .42800004 .055000005 C .44500003 .091000009 .45800004 .15200001 .45800004 .15400002 C .45800004 .16400002 .44900004 .16400002 .44600005 .16400002 C .43600003 .16400002 .43500004 .16000001 .43200005 .14600002 C .41500003 .081 .397 .022000002 .35600005 .022000002 C .32900004 .022000002 .32600004 .048 .32600004 .068 C .32600004 .09 .32800005 .098000008 .33900003 .14200002 C .35000003 .18400002 .35200004 .19400002 .36100004 .23200003 L .397 .37200005 C .40400005 .40000005 .40400005 .40200005 .40400005 .40600003 C .40400005 .42300005 .39200003 .43300004 .37500004 .43300004 C .35100005 .43300004 .33600004 .411 .33300004 .38900004 M .26800005 .13000001 C .263 .112 .263 .11000001 .24800001 .093 C .20400001 .038000004 .163 .022000002 .135 .022000002 C .08499999 .022000002 .07100001 .077 .07100001 .116000007 C .07100001 .16600001 .103 .28900004 .126 .335 C .157 .39400003 .202 .43100003 .242 .43100003 C .307 .43100003 .32100005 .34900005 .32100005 .34300003 C .32100005 .337 .31900005 .33100004 .31800003 .32600004 L .26800005 .13000001 Z "/>
</symbol>
<use xlink:href="#font_0_2" transform="matrix(9.9626,0,0,-9.9626,17.391505,180.76959)"/>
<symbol id="font_0_4">
<path d="M .35500003 .39100004 C .33900003 .39100004 .32500003 .39100004 .31100003 .37700004 C .29500003 .36200003 .293 .34500004 .293 .33800004 C .293 .314 .31100003 .30300004 .33 .30300004 C .359 .30300004 .386 .32700003 .386 .367 C .386 .41600005 .33900003 .45300005 .268 .45300005 C .13300002 .45300005 0 .31000004 0 .16900002 C 0 .079 .058000007 0 .162 0 C .305 0 .389 .106000009 .389 .11800001 C .389 .124000009 .38300003 .13100001 .377 .13100001 C .372 .13100001 .37 .12900001 .36400003 .12100001 C .285 .022000002 .176 .022000002 .164 .022000002 C .101 .022000002 .074 .071 .074 .13100001 C .074 .17200002 .094000007 .26900003 .12800002 .33100004 C .15900001 .388 .21400002 .43100003 .269 .43100003 C .303 .43100003 .34100003 .418 .35500003 .39100004 Z "/>
</symbol>
<use xlink:href="#font_0_4" transform="matrix(9.9626,0,0,-9.9626,95.58747,180.76959)"/>
<symbol id="font_0_3">
<path d="M .192 .694 C .192 .695 .192 .705 .179 .705 C .156 .705 .083000008 .697 .057 .695 C .049 .694 .038 .693 .038 .675 C .038 .663 .047000003 .663 .062000004 .663 C .11 .663 .112 .656 .112 .646 C .112 .639 .103 .605 .098000008 .584 L .015999999 .25800003 C .0040000008 .20800002 0 .19200002 0 .15700002 C 0 .062000004 .053 0 .127 0 C .24500002 0 .36800004 .14900002 .36800004 .293 C .36800004 .38400004 .31500004 .45300005 .235 .45300005 C .18900001 .45300005 .148 .42400003 .118 .39300005 L .192 .694 M .098000008 .316 C .104 .33800004 .104 .34000004 .113000009 .351 C .162 .41600005 .207 .43100003 .233 .43100003 C .26900003 .43100003 .29600004 .40100003 .29600004 .337 C .29600004 .27800004 .263 .16300002 .24500002 .12500002 C .212 .058000003 .16600001 .022000002 .127 .022000002 C .092999998 .022000002 .060000007 .049000004 .060000007 .123 C .060000007 .14200002 .060000007 .16100002 .076000008 .22400002 L .098000008 .316 Z "/>
</symbol>
<use xlink:href="#font_0_3" transform="matrix(9.9626,0,0,-9.9626,173.37325,183.39859)"/>
<clipPath id="cp1">
<path transform="matrix(1,0,0,-1,.199,170.725)" d="M 0 -13.45044 L 194.27368 -13.45044 L 194.27368 147.94692 L 0 147.94692 Z "/>
</clipPath>
<g clip-path="url(#cp1)">
<path transform="matrix(1,0,0,-1,.199,170.725)" stroke-width=".79701" stroke-linecap="butt" stroke-miterlimit="10" stroke-linejoin="miter" fill="none" stroke="#000000" d="M 7.77094 15.91542 L 9.57631 20.65813 L 11.3817 25.30426 L 13.18709 29.85342 L 14.99248 34.3058 L 16.79787 38.66153 L 18.60324 42.9203 L 20.40863 47.08229 L 22.21402 51.1475 L 24.0194 55.11604 L 25.82478 58.98767 L 27.63017 62.76251 L 29.43555 66.44064 L 31.24094 70.0219 L 33.04633 73.5064 L 34.85172 76.89415 L 36.6571 80.185 L 38.4625 83.3791 L 40.26785 86.47638 L 42.07324 89.477 L 43.87863 92.38069 L 45.68402 95.18764 L 47.48941 97.89784 L 49.2948 100.51117 L 51.10017 103.02773 L 52.90556 105.44746 L 54.71094 107.7705 L 56.51633 109.99669 L 58.32172 112.12607 L 60.1271 114.15869 L 61.93248 116.0945 L 63.73787 117.93352 L 65.54326 119.67574 L 67.34865 121.32118 L 69.15404 122.86981 L 70.95941 124.32169 L 72.7648 125.67673 L 74.57018 126.935 L 76.37556 128.09647 L 78.18095 129.16115 L 79.98634 130.12903 L 81.79173 131.00014 L 83.59712 131.77443 L 85.4025 132.45195 L 87.20787 133.03267 L 89.01326 133.5166 L 90.81865 133.90373 L 92.62404 134.19408 L 94.42943 134.38762 L 96.2348 134.48438 L 98.04019 134.48435 L 99.84558 134.38751 L 101.65096 134.1939 L 103.45634 133.90348 L 105.26173 133.51627 L 107.06711 133.03227 L 108.8725 132.45148 L 110.67789 131.77391 L 112.48328 130.99951 L 114.28867 130.12836 L 116.09406 129.16039 L 117.89943 128.09563 L 119.7048 126.93408 L 121.5102 125.67575 L 123.31558 124.32063 L 125.12097 122.8687 L 126.92636 121.31999 L 128.73175 119.67448 L 130.53713 117.93219 L 132.34252 116.0931 L 134.14789 114.1572 L 135.95328 112.12453 L 137.75867 109.99504 L 139.56406 107.7688 L 141.36943 105.44576 L 143.17482 103.02594 L 144.98021 100.50923 L 146.7856 97.89581 L 148.59098 95.18564 L 150.39636 92.37854 L 152.20174 89.47478 L 154.00713 86.4742 L 155.81252 83.37674 L 157.6179 80.18259 L 159.4233 76.89162 L 161.22869 73.5038 L 163.03408 70.01924 L 164.83943 66.43791 L 166.64482 62.75981 L 168.45021 58.98479 L 170.2556 55.11311 L 172.06099 51.1446 L 173.86638 47.0792 L 175.67176 42.91711 L 177.47714 38.65828 L 179.28252 34.30247 L 181.0879 29.85 L 182.8933 25.30078 L 184.69869 20.65475 L 186.50406 15.91179 "/>
<symbol id="font_0_7">
<path d="M .45700003 .586 C .461 .6 .461 .602 .461 .609 C .461 .62700006 .447 .63600006 .432 .63600006 C .42200003 .63600006 .40600003 .63 .397 .615 C .395 .61 .387 .579 .38300003 .561 C .37600003 .535 .36900003 .508 .363 .48100005 L .318 .301 C .314 .286 .271 .21600002 .20500002 .21600002 C .15400002 .21600002 .143 .26000003 .143 .29700003 C .143 .34300003 .16000001 .40500004 .194 .49300004 C .21000001 .53400006 .21400002 .545 .21400002 .56500008 C .21400002 .61 .18200001 .6470001 .13200002 .6470001 C .037 .6470001 0 .50200006 0 .49300004 C 0 .48300005 .01 .48300005 .012 .48300005 C .022000002 .48300005 .023 .485 .028000003 .50100007 C .055000009 .595 .095000009 .625 .12900001 .625 C .13700001 .625 .15400002 .625 .15400002 .59300008 C .15400002 .568 .14400001 .54200008 .13700001 .523 C .097 .41700004 .079 .36 .079 .31300003 C .079 .224 .142 .194 .201 .194 C .24000003 .194 .274 .21100001 .30200003 .23900002 C .289 .187 .277 .13800001 .237 .08500001 C .21100001 .051 .17300001 .022 .127 .022 C .113000009 .022 .068 .025000006 .051000008 .06400001 C .067 .06400001 .080000009 .06400001 .094000007 .076000008 C .104 .08500001 .11400001 .098000008 .11400001 .117000009 C .11400001 .148 .087000008 .15200001 .07700001 .15200001 C .054000006 .15200001 .021 .136 .021 .087000008 C .021 .037 .065000008 0 .127 0 C .23 0 .333 .091000009 .361 .20400001 L .45700003 .586 Z "/>
</symbol>
<use xlink:href="#font_0_7" transform="matrix(9.9626,0,0,-9.9626,148.60192,63.179349)"/>
<symbol id="font_2_5">
<path d="M .63100007 .19400002 C .646 .19400002 .665 .19400002 .665 .214 C .665 .23400001 .646 .23400001 .632 .23400001 L .033 .23400001 C .019000002 .23400001 0 .23400001 0 .214 C 0 .19400002 .019000002 .19400002 .034 .19400002 L .63100007 .19400002 M .632 0 C .646 0 .665 0 .665 .02000001 C .665 .040000008 .646 .040000008 .63100007 .040000008 L .034 .040000008 C .019000002 .040000008 0 .040000008 0 .02000001 C 0 0 .019000002 0 .033 0 L .632 0 Z "/>
</symbol>
<use xlink:href="#font_2_5" transform="matrix(9.9626,0,0,-9.9626,156.8809,59.81199)"/>
<symbol id="font_0_5">
<path d="M .314 .605 L .4 .605 C .42000003 .605 .43 .605 .43 .625 C .43 .63600006 .42000003 .63600006 .40300004 .63600006 L .32000003 .63600006 L .34100003 .75 C .34500004 .771 .35900004 .842 .365 .8540001 C .374 .873 .39100004 .888 .41200004 .888 C .416 .888 .44200004 .888 .461 .87 C .41700004 .86600008 .407 .8310001 .407 .816 C .407 .793 .425 .781 .444 .781 C .47 .781 .49900005 .8030001 .49900005 .8410001 C .49900005 .8870001 .45300005 .9100001 .41200004 .9100001 C .37800003 .9100001 .31500004 .8920001 .28500004 .793 C .279 .7720001 .27600003 .7620001 .252 .63600006 L .18300002 .63600006 C .164 .63600006 .15300001 .63600006 .15300001 .61700007 C .15300001 .605 .162 .605 .18100001 .605 L .24700001 .605 L .172 .21000001 C .15400002 .113000009 .13700001 .022 .08500001 .022 C .081 .022 .056 .022 .037 .040000008 C .083000008 .043000014 .09200001 .07900001 .09200001 .094000007 C .09200001 .117000009 .074 .12900001 .055 .12900001 C .029 .12900001 0 .10700001 0 .069000009 C 0 .024000004 .044 0 .08500001 0 C .14 0 .18 .059 .19800002 .09700001 C .23000002 .16000001 .25300003 .28100003 .254 .28800003 L .314 .605 Z "/>
</symbol>
<use xlink:href="#font_0_5" transform="matrix(9.9626,0,0,-9.9626,167.36702,63.179349)"/>
<symbol id="font_2_2">
<path d="M .23200003 .00999999 C .23200003 .012999982 .23200003 .014999986 .215 .03199999 C .09 .15799999 .058 .347 .058 .5 C .058 .674 .096 .84800007 .21900001 .97300007 C .23200003 .985 .23200003 .98700007 .23200003 .99 C .23200003 .99700006 .22800002 1 .222 1 C .21200001 1 .12200001 .93200007 .06299999 .805 C .012000002 .69500008 0 .584 0 .5 C 0 .422 .011 .301 .066 .188 C .126 .065 .21200001 0 .222 0 C .22800002 0 .23200003 .0029999912 .23200003 .00999999 Z "/>
</symbol>
<use xlink:href="#font_2_2" transform="matrix(9.9626,0,0,-9.9626,173.7753,63.627668)"/>
<symbol id="font_0_6">
<path d="M .305 .31300003 C .311 .33900003 .334 .43100003 .404 .43100003 C .409 .43100003 .433 .43100003 .454 .418 C .426 .41300003 .40600003 .388 .40600003 .36400003 C .40600003 .34800003 .417 .32900004 .444 .32900004 C .46600003 .32900004 .498 .34700004 .498 .38700003 C .498 .43900005 .439 .45300005 .405 .45300005 C .347 .45300005 .312 .40000005 .3 .37700004 C .275 .44300003 .221 .45300005 .19200002 .45300005 C .08800001 .45300005 .031000002 .32400004 .031000002 .29900003 C .031000002 .28900004 .041 .28900004 .043000007 .28900004 C .051000008 .28900004 .054000006 .291 .056 .3 C .09 .40600003 .156 .43100003 .19000001 .43100003 C .209 .43100003 .244 .42200003 .244 .36400003 C .244 .33300004 .22700002 .26600004 .19000001 .126 C .17400001 .064 .13900002 .022000002 .095000009 .022000002 C .08900001 .022000002 .06600001 .022000002 .045 .035 C .07000001 .040000004 .09200001 .061 .09200001 .089 C .09200001 .116000007 .07000001 .124000009 .055000009 .124000009 C .025 .124000009 0 .098000008 0 .06600001 C 0 .020000002 .050000006 0 .094000007 0 C .16000001 0 .19600001 .07000001 .19900002 .076000008 C .21100001 .039 .24700003 0 .307 0 C .41 0 .467 .12900001 .467 .15400002 C .467 .16400002 .458 .16400002 .455 .16400002 C .446 .16400002 .444 .16000001 .442 .15300001 C .409 .046 .341 .022000002 .30900003 .022000002 C .27 .022000002 .254 .054 .254 .08800001 C .254 .11000001 .26 .13200002 .271 .17600002 L .305 .31300003 Z "/>
</symbol>
<use xlink:href="#font_0_6" transform="matrix(9.9626,0,0,-9.9626,176.9519,61.246606)"/>
<symbol id="font_2_3">
<path d="M .232 .5 C .232 .578 .22100002 .699 .16600001 .81200006 C .106 .93500009 .020000004 1 .009999998 1 C .0040000008 1 0 .99600008 0 .99 C 0 .98700007 0 .985 .019000002 .967 C .117000009 .86800006 .174 .709 .174 .5 C .174 .329 .137 .153 .012999997 .026999996 C 0 .014999986 0 .012999982 0 .00999999 C 0 .003999993 .0040000008 0 .009999998 0 C .020000004 0 .11000001 .06799999 .169 .195 C .22 .305 .232 .416 .232 .5 Z "/>
</symbol>
<use xlink:href="#font_2_3" transform="matrix(9.9626,0,0,-9.9626,182.92487,63.627668)"/>
<path transform="matrix(1,0,0,-1,.199,170.725)" stroke-width=".3985" stroke-linecap="butt" stroke-dasharray="2.98883,2.98883" stroke-miterlimit="10" stroke-linejoin="miter" fill="none" stroke="#0000ff" d="M 19.42737 44.83215 L 174.84632 44.83215 "/>
<use xlink:href="#font_0_5" transform="matrix(9.9626,0,0,-9.9626,72.752017,138.92734)" fill="#0000ff"/>
<use xlink:href="#font_2_2" transform="matrix(9.9626,0,0,-9.9626,79.159297,139.37566)" fill="#0000ff"/>
<use xlink:href="#font_0_2" transform="matrix(9.9626,0,0,-9.9626,82.4465,136.9946)" fill="#0000ff"/>
<use xlink:href="#font_2_3" transform="matrix(9.9626,0,0,-9.9626,87.88187,139.37566)" fill="#0000ff"/>
<use xlink:href="#font_2_5" transform="matrix(9.9626,0,0,-9.9626,94.51695,135.55998)" fill="#0000ff"/>
<use xlink:href="#font_0_5" transform="matrix(9.9626,0,0,-9.9626,105.000019,138.92734)" fill="#0000ff"/>
<use xlink:href="#font_2_2" transform="matrix(9.9626,0,0,-9.9626,111.408298,139.37566)" fill="#0000ff"/>
<use xlink:href="#font_0_3" transform="matrix(9.9626,0,0,-9.9626,114.76424,136.9946)" fill="#0000ff"/>
<use xlink:href="#font_2_3" transform="matrix(9.9626,0,0,-9.9626,119.13987,139.37566)" fill="#0000ff"/>
<path transform="matrix(1,0,0,-1,.199,170.725)" stroke-width=".3985" stroke-linecap="butt" stroke-miterlimit="10" stroke-linejoin="miter" fill="none" stroke="#ff0000" d="M 50.51115 134.49646 L 51.45305 134.49646 L 52.39496 134.49646 L 53.33688 134.49646 L 54.2788 134.49646 L 55.2207 134.49646 L 56.16263 134.49646 L 57.10454 134.49646 L 58.04645 134.49646 L 58.98837 134.49646 L 59.93028 134.49646 L 60.87221 134.49646 L 61.81412 134.49646 L 62.75604 134.49646 L 63.69795 134.49646 L 64.63986 134.49646 L 65.58179 134.49646 L 66.5237 134.49646 L 67.4656 134.49646 L 68.40753 134.49646 L 69.34944 134.49646 L 70.29137 134.49646 L 71.23329 134.49646 L 72.1752 134.49646 L 73.11711 134.49646 L 74.05904 134.49646 L 75.00095 134.49646 L 75.94286 134.49646 L 76.88478 134.49646 L 77.82669 134.49646 L 78.7686 134.49646 L 79.71053 134.49646 L 80.65245 134.49646 L 81.59436 134.49646 L 82.53627 134.49646 L 83.4782 134.49646 L 84.4201 134.49646 L 85.36201 134.49646 L 86.30394 134.49646 L 87.24585 134.49646 L 88.18776 134.49646 L 89.1297 134.49646 L 90.07161 134.49646 L 91.01352 134.49646 L 91.95544 134.49646 L 92.89735 134.49646 L 93.83926 134.49646 L 94.78117 134.49646 L 95.7231 134.49646 L 96.66501 134.49646 L 97.60693 134.49646 L 98.54886 134.49646 L 99.49077 134.49646 L 100.43268 134.49646 L 101.3746 134.49646 L 102.31651 134.49646 L 103.25842 134.49646 L 104.20035 134.49646 L 105.14226 134.49646 L 106.08418 134.49646 L 107.02611 134.49646 L 107.96802 134.49646 L 108.90993 134.49646 L 109.85184 134.49646 L 110.79376 134.49646 L 111.73567 134.49646 L 112.67758 134.49646 L 113.6195 134.49646 L 114.56142 134.49646 L 115.50334 134.49646 L 116.44527 134.49646 L 117.38718 134.49646 L 118.32909 134.49646 L 119.27101 134.49646 L 120.21292 134.49646 L 121.15483 134.49646 L 122.09676 134.49646 L 123.03867 134.49646 L 123.98058 134.49646 L 124.9225 134.49646 L 125.86443 134.49646 L 126.80634 134.49646 L 127.74825 134.49646 L 128.69017 134.49646 L 129.63208 134.49646 L 130.57399 134.49646 L 131.51592 134.49646 L 132.45783 134.49646 L 133.39974 134.49646 L 134.34168 134.49646 L 135.28359 134.49646 L 136.2255 134.49646 L 137.16742 134.49646 L 138.10933 134.49646 L 139.05124 134.49646 L 139.99317 134.49646 L 140.93508 134.49646 L 141.87699 134.49646 L 142.8189 134.49646 L 143.76082 134.49646 "/>
<use xlink:href="#font_0_5" transform="matrix(9.9626,0,0,-9.9626,78.32801,32.262334)" fill="#ff0000"/>
<symbol id="font_3_1">
<path d="M .24200002 .43100003 C .25 .448 .25100003 .456 .25100003 .463 C .25100003 .49400003 .22300002 .518 .192 .518 C .15400002 .518 .14200002 .487 .137 .47100003 L .0050000029 .038000004 C .0040000008 .036000007 0 .023000002 0 .022 C 0 .010000002 .031000004 0 .039000006 0 C .046000005 0 .047000007 .0020000004 .054000006 .017 L .24200002 .43100003 Z "/>
</symbol>
<use xlink:href="#font_3_1" transform="matrix(6.9738,0,0,-6.9738,84.08473,25.82107)" fill="#ff0000"/>
<use xlink:href="#font_2_2" transform="matrix(9.9626,0,0,-9.9626,87.53129,32.71065)" fill="#ff0000"/>
<use xlink:href="#font_0_4" transform="matrix(9.9626,0,0,-9.9626,90.82746,30.32959)" fill="#ff0000"/>
<symbol id="font_2_4">
<path d="M .421 .34200005 C .421 .42200003 .416 .50200006 .381 .57600006 C .335 .67200008 .25300003 .688 .211 .688 C .15100001 .688 .07800001 .66200008 .037000006 .56900009 C .0050000029 .5 0 .42200003 0 .34200005 C 0 .26700003 .0040000008 .177 .045000007 .101 C .088 .020000002 .161 0 .21000001 0 C .264 0 .34 .021000002 .384 .116000007 C .416 .185 .421 .263 .421 .34200005 M .21000001 .022000002 C .171 .022000002 .112 .047000003 .094 .143 C .083000008 .20300001 .083000008 .29500003 .083000008 .35400004 C .083000008 .41800005 .083000008 .48400004 .091000009 .53800007 C .11 .65700009 .185 .66600009 .21000001 .66600009 C .243 .66600009 .30900003 .64800009 .328 .549 C .338 .49300004 .338 .41700004 .338 .35400004 C .338 .279 .338 .21100001 .32700003 .147 C .312 .052 .255 .022000002 .21000001 .022000002 Z "/>
</symbol>
<use xlink:href="#font_2_3" transform="matrix(9.9626,0,0,-9.9626,95.29886,32.71065)" fill="#ff0000"/>
<use xlink:href="#font_2_5" transform="matrix(9.9626,0,0,-9.9626,101.933948,28.894976)" fill="#ff0000"/>
<use xlink:href="#font_2_4" transform="matrix(9.9626,0,0,-9.9626,112.27512,30.439179)" fill="#ff0000"/>
<path transform="matrix(1,0,0,-1,.199,170.725)" stroke-width=".3985" stroke-linecap="butt" stroke-miterlimit="10" stroke-linejoin="miter" fill="none" stroke="#000000" d="M 0 0 L 1.96231 0 L 3.92462 0 L 5.88695 0 L 7.84926 0 L 9.81158 0 L 11.77391 0 L 13.73622 0 L 15.69855 0 L 17.66086 0 L 19.62318 0 L 21.5855 0 L 23.54782 0 L 25.51015 0 L 27.47246 0 L 29.43478 0 L 31.3971 0 L 33.3594 0 L 35.32175 0 L 37.28406 0 L 39.24638 0 L 41.2087 0 L 43.171 0 L 45.13333 0 L 47.09566 0 L 49.05798 0 L 51.0203 0 L 52.9826 0 L 54.94493 0 L 56.90724 0 L 58.86958 0 L 60.8319 0 L 62.7942 0 L 64.75653 0 L 66.71884 0 L 68.68117 0 L 70.6435 0 L 72.6058 0 L 74.56813 0 L 76.53044 0 L 78.49277 0 L 80.45508 0 L 82.4174 0 L 84.37973 0 L 86.34204 0 L 88.30437 0 L 90.26668 0 L 92.229 0 L 94.19133 0 L 96.15364 0 L 98.11597 0 L 100.07828 0 L 102.0406 0 L 104.00293 0 L 105.96524 0 L 107.92757 0 L 109.88988 0 L 111.8522 0 L 113.81453 0 L 115.77684 0 L 117.73917 0 L 119.70148 0 L 121.6638 0 L 123.62611 0 L 125.58844 0 L 127.55075 0 L 129.51308 0 L 131.4754 0 L 133.43772 0 L 135.40003 0 L 137.36235 0 L 139.32466 0 L 141.287 0 L 143.24932 0 L 145.21163 0 L 147.17395 0 L 149.13626 0 L 151.09859 0 L 153.06092 0 L 155.02323 0 L 156.98555 0 L 158.94786 0 L 160.91019 0 L 162.8725 0 L 164.83483 0 L 166.79715 0 L 168.75946 0 L 170.72179 0 L 172.6841 0 L 174.64643 0 L 176.60875 0 L 178.57106 0 L 180.53339 0 L 182.4957 0 L 184.45803 0 L 186.42034 0 L 188.38266 0 L 190.34499 0 L 192.3073 0 L 194.26963 0 "/>
</g>
<path transform="matrix(1,0,0,-1,.199,170.725)" d="M 21.41992 44.83215 C 21.41992 45.93262 20.52783 46.8247 19.42737 46.8247 C 18.32689 46.8247 17.43481 45.93262 17.43481 44.83215 C 17.43481 43.73167 18.32689 42.8396 19.42737 42.8396 C 20.52783 42.8396 21.41992 43.73167 21.41992 44.83215 Z M 19.42737 44.83215 " fill="#0000ff"/>
<path transform="matrix(1,0,0,-1,.199,170.725)" stroke-width=".3985" stroke-linecap="butt" stroke-dasharray="2.98883,2.98883" stroke-miterlimit="10" stroke-linejoin="miter" fill="none" stroke="#0000ff" d="M 21.41992 44.83215 C 21.41992 45.93262 20.52783 46.8247 19.42737 46.8247 C 18.32689 46.8247 17.43481 45.93262 17.43481 44.83215 C 17.43481 43.73167 18.32689 42.8396 19.42737 42.8396 C 20.52783 42.8396 21.41992 43.73167 21.41992 44.83215 Z M 19.42737 44.83215 "/>
<path transform="matrix(1,0,0,-1,.199,170.725)" d="M 176.83887 44.83215 C 176.83887 45.93262 175.94678 46.8247 174.84632 46.8247 C 173.74584 46.8247 172.85376 45.93262 172.85376 44.83215 C 172.85376 43.73167 173.74584 42.8396 174.84632 42.8396 C 175.94678 42.8396 176.83887 43.73167 176.83887 44.83215 Z M 174.84632 44.83215 " fill="#0000ff"/>
<path transform="matrix(1,0,0,-1,.199,170.725)" stroke-width=".3985" stroke-linecap="butt" stroke-dasharray="2.98883,2.98883" stroke-miterlimit="10" stroke-linejoin="miter" fill="none" stroke="#0000ff" d="M 176.83887 44.83215 C 176.83887 45.93262 175.94678 46.8247 174.84632 46.8247 C 173.74584 46.8247 172.85376 45.93262 172.85376 44.83215 C 172.85376 43.73167 173.74584 42.8396 174.84632 42.8396 C 175.94678 42.8396 176.83887 43.73167 176.83887 44.83215 Z M 174.84632 44.83215 "/>
<path transform="matrix(1,0,0,-1,.199,170.725)" d="M 99.1294 134.49646 C 99.1294 135.59693 98.2373 136.48902 97.13684 136.48902 C 96.03636 136.48902 95.14429 135.59693 95.14429 134.49646 C 95.14429 133.39598 96.03636 132.5039 97.13684 132.5039 C 98.2373 132.5039 99.1294 133.39598 99.1294 134.49646 Z M 97.13684 134.49646 " fill="#ff0000"/>
<path transform="matrix(1,0,0,-1,.199,170.725)" stroke-width=".3985" stroke-linecap="butt" stroke-miterlimit="10" stroke-linejoin="miter" fill="none" stroke="#ff0000" d="M 99.1294 134.49646 C 99.1294 135.59693 98.2373 136.48902 97.13684 136.48902 C 96.03636 136.48902 95.14429 135.59693 95.14429 134.49646 C 95.14429 133.39598 96.03636 132.5039 97.13684 132.5039 C 98.2373 132.5039 99.1294 133.39598 99.1294 134.49646 Z M 97.13684 134.49646 "/>
<symbol id="font_2_6">
<path d="M .18900001 .37500004 L .18900001 .63400009 C .18900001 .65700009 .18900001 .669 .21100001 .67200008 C .22100002 .674 .25000004 .674 .27 .674 C .36 .674 .47200004 .67 .47200004 .52500006 C .47200004 .45600004 .448 .37500004 .3 .37500004 L .18900001 .37500004 M .40000005 .36200003 C .497 .38600005 .575 .44700004 .575 .52500006 C .575 .62100008 .46100004 .70500007 .314 .70500007 L 0 .70500007 L 0 .674 L .024000004 .674 C .10100001 .674 .103000018 .66300007 .103000018 .62700006 L .103000018 .1 C .103000018 .064 .10100001 .053000004 .024000004 .053000004 L 0 .053000004 L 0 .022000002 C .036000004 .025000003 .10700001 .025000003 .14600002 .025000003 C .18500002 .025000003 .256 .025000003 .29200004 .022000002 L .29200004 .053000004 L .268 .053000004 C .19100002 .053000004 .18900001 .064 .18900001 .1 L .18900001 .35300005 L .30400003 .35300005 C .32000003 .35300005 .36200003 .35300005 .397 .31900005 C .43500004 .28300003 .43500004 .252 .43500004 .185 C .43500004 .120000008 .43500004 .080000009 .47600005 .042000005 C .517 .006000001 .572 0 .602 0 C .68 0 .697 .082 .697 .11000001 C .697 .116000007 .697 .127 .684 .127 C .673 .127 .673 .118 .672 .111 C .666 .040000004 .631 .022000002 .606 .022000002 C .557 .022000002 .549 .07300001 .535 .16600001 L .522 .246 C .504 .31000004 .455 .34300003 .40000005 .36200003 Z "/>
</symbol>
<symbol id="font_2_10">
<path d="M .44300003 .22500003 C .44300003 .35300002 .34300003 .45900003 .222 .45900003 C .097 .45900003 0 .35000003 0 .22500003 C 0 .096 .104 0 .22100002 0 C .342 0 .44300003 .098000008 .44300003 .22500003 M .222 .025000003 C .17900002 .025000003 .135 .046 .10800001 .092 C .083000008 .136 .083000008 .19700001 .083000008 .23300003 C .083000008 .272 .083000008 .32600004 .10700001 .37000004 C .134 .41600005 .18100001 .43700005 .22100002 .43700005 C .26500003 .43700005 .30800004 .41500003 .33400003 .37200005 C .36 .32900004 .36 .27100004 .36 .23300003 C .36 .19700001 .36 .143 .33800004 .09900001 C .316 .054 .272 .025000003 .222 .025000003 Z "/>
</symbol>
<symbol id="font_2_d">
<path d="M .144 .694 L 0 .683 L 0 .652 C .07000001 .652 .07800001 .64500007 .07800001 .596 L .07800001 .076000008 C .07800001 .031000002 .067 .031000002 0 .031000002 L 0 0 C .033 .001 .086 .003 .11100001 .003 C .136 .003 .185 .001 .22200004 0 L .22200004 .031000002 C .155 .031000002 .144 .031000002 .144 .076000008 L .144 .694 Z "/>
</symbol>
<symbol id="font_2_a">
<path d="M .08400001 .263 C .09 .41200004 .17400001 .43700005 .20800002 .43700005 C .31100003 .43700005 .321 .30200003 .321 .263 L .08400001 .263 M .083000008 .24200002 L .36200003 .24200002 C .38400004 .24200002 .38700003 .24200002 .38700003 .263 C .38700003 .36200003 .33300004 .45900003 .20800002 .45900003 C .09200001 .45900003 0 .35600005 0 .23100002 C 0 .097 .105000007 0 .22000002 0 C .342 0 .38700003 .111 .38700003 .13000001 C .38700003 .14000002 .379 .14200002 .374 .14200002 C .365 .14200002 .36300005 .136 .36100004 .128 C .326 .025000003 .236 .025000003 .22600001 .025000003 C .17600002 .025000003 .136 .055000005 .113000009 .092 C .083000008 .14000002 .083000008 .20600002 .083000008 .24200002 Z "/>
</symbol>
<symbol id="font_2_1">
<path d="M .12000001 .19400004 C .12000001 .25400005 .09600001 .299 .05300001 .299 C .018 .299 0 .27200005 0 .24600002 C 0 .22 .017000005 .19299999 .05300001 .19299999 C .07300001 .19299999 .087000008 .20300004 .093 .20900002 C .094000007 .211 .095000009 .21200004 .09600001 .21200004 C .09800001 .21200004 .09800001 .19800005 .09800001 .19400004 C .09800001 .16200003 .091 .09 .028000005 .027999998 C .016000003 .016000003 .016000003 .013999999 .016000003 .011000007 C .016000003 .004000008 .021000006 0 .026 0 C .037 0 .12000001 .076000008 .12000001 .19400004 Z "/>
</symbol>
<symbol id="font_2_12">
<path d="M .17500001 .20500002 C .197 .20100002 .279 .18500002 .279 .113000009 C .279 .062000004 .24400002 .022000002 .16600001 .022000002 C .082 .022000002 .046000005 .079 .027000003 .16400002 C .024000004 .17700002 .023000002 .18100001 .013000004 .18100001 C 0 .18100001 0 .17400001 0 .15600002 L 0 .024 C 0 .0070000009 0 0 .011000004 0 C .016000003 0 .017 .0010000002 .036000007 .020000002 C .038000004 .022000002 .038000004 .024 .056 .043 C .1 .0010000002 .14500001 0 .16600001 0 C .28100003 0 .32700003 .067 .32700003 .13900002 C .32700003 .19200002 .29700003 .22200002 .28500004 .23400001 C .25200004 .26600004 .213 .27400003 .171 .28200004 C .115 .293 .048 .30600003 .048 .36400003 C .048 .39900003 .07400001 .44000004 .16 .44000004 C .27 .44000004 .27500005 .35000003 .277 .31900005 C .27800004 .31000004 .28700004 .31000004 .28900004 .31000004 C .30200003 .31000004 .30200003 .31500004 .30200003 .33400003 L .30200003 .43500004 C .30200003 .45200003 .30200003 .45900003 .291 .45900003 C .286 .45900003 .284 .45900003 .27100004 .44700004 C .26800005 .44300003 .25800003 .43400003 .254 .43100003 C .21600002 .45900003 .17500001 .45900003 .16 .45900003 C .038000004 .45900003 0 .39200003 0 .33600004 C 0 .30100004 .016000003 .27300004 .043000007 .25100003 C .075 .22500003 .10300001 .21900001 .17500001 .20500002 Z "/>
</symbol>
<symbol id="font_2_7">
<path d="M .63 .67700007 L .019000002 .67700007 L 0 .45200003 L .025000003 .45200003 C .039 .61300006 .054 .646 .20500002 .646 C .223 .646 .24900003 .646 .259 .64400008 C .28 .64000007 .28 .629 .28 .606 L .28 .079 C .28 .045 .28 .031000002 .17500001 .031000002 L .135 .031000002 L .135 0 C .17600002 .003 .278 .003 .324 .003 C .37 .003 .473 .003 .514 0 L .514 .031000002 L .47400005 .031000002 C .36900003 .031000002 .36900003 .045 .36900003 .079 L .36900003 .606 C .36900003 .62600007 .36900003 .64000007 .387 .64400008 C .398 .646 .425 .646 .444 .646 C .595 .646 .61 .61300006 .624 .45200003 L .64900007 .45200003 L .63 .67700007 Z "/>
</symbol>
<symbol id="font_2_c">
<path d="M .07800001 .076000008 C .07800001 .031000002 .067 .031000002 0 .031000002 L 0 0 C .035 .001 .08600001 .003 .113000009 .003 C .139 .003 .191 .001 .225 0 L .225 .031000002 C .158 .031000002 .147 .031000002 .147 .076000008 L .147 .26000003 C .147 .36400003 .218 .42000003 .282 .42000003 C .345 .42000003 .356 .36600004 .356 .30900003 L .356 .076000008 C .356 .031000002 .345 .031000002 .278 .031000002 L .278 0 C .31300003 .001 .36400003 .003 .391 .003 C .41700004 .003 .46900005 .001 .503 0 L .503 .031000002 C .451 .031000002 .42600004 .031000002 .425 .061000006 L .425 .252 C .425 .33800004 .425 .36900003 .39400003 .40500004 C .38000003 .42200003 .347 .44200004 .289 .44200004 C .20500002 .44200004 .161 .38200004 .14400001 .344 L .14400001 .694 L 0 .683 L 0 .652 C .07000001 .652 .07800001 .64500007 .07800001 .596 L .07800001 .076000008 Z "/>
</symbol>
<symbol id="font_2_11">
<path d="M .13900002 .33200003 L .13900002 .44200004 L 0 .43100003 L 0 .4 C .07000001 .4 .07800001 .393 .07800001 .344 L .07800001 .076000008 C .07800001 .031000002 .067 .031000002 0 .031000002 L 0 0 C .039 .001 .08600001 .003 .11400001 .003 C .15400002 .003 .20100002 .003 .24100003 0 L .24100003 .031000002 L .22000002 .031000002 C .14600002 .031000002 .14400001 .042000005 .14400001 .078 L .14400001 .23200001 C .14400001 .33100004 .18600002 .42000003 .26200003 .42000003 C .26900003 .42000003 .27100004 .42000003 .27300004 .41900004 C .27 .418 .25000004 .40600003 .25000004 .38000003 C .25000004 .35200004 .27100004 .337 .293 .337 C .31100003 .337 .33600004 .349 .33600004 .381 C .33600004 .41300003 .305 .44200004 .26200003 .44200004 C .18900001 .44200004 .15300001 .37500004 .13900002 .33200003 Z "/>
</symbol>
<symbol id="font_2_e">
<path d="M .07800001 .344 L .07800001 .076000008 C .07800001 .031000002 .067 .031000002 0 .031000002 L 0 0 C .035 .001 .08600001 .003 .113000009 .003 C .139 .003 .191 .001 .225 0 L .225 .031000002 C .158 .031000002 .147 .031000002 .147 .076000008 L .147 .26000003 C .147 .36400003 .218 .42000003 .282 .42000003 C .345 .42000003 .356 .36600004 .356 .30900003 L .356 .076000008 C .356 .031000002 .345 .031000002 .278 .031000002 L .278 0 C .31300003 .001 .36400003 .003 .391 .003 C .41700004 .003 .46900005 .001 .503 0 L .503 .031000002 C .43600003 .031000002 .425 .031000002 .425 .076000008 L .425 .26000003 C .425 .36400003 .496 .42000003 .56 .42000003 C .623 .42000003 .634 .36600004 .634 .30900003 L .634 .076000008 C .634 .031000002 .623 .031000002 .556 .031000002 L .556 0 C .591 .001 .642 .003 .669 .003 C .69500008 .003 .74700006 .001 .781 0 L .781 .031000002 C .72900006 .031000002 .70400008 .031000002 .703 .061000006 L .703 .252 C .703 .33800004 .703 .36900003 .67200008 .40500004 C .65800008 .42200003 .625 .44200004 .56700006 .44200004 C .48300005 .44200004 .439 .38200004 .42200003 .344 C .40800003 .43100003 .33400003 .44200004 .289 .44200004 C .216 .44200004 .169 .39900003 .141 .337 L .141 .44200004 L 0 .43100003 L 0 .4 C .07000001 .4 .07800001 .393 .07800001 .344 Z "/>
</symbol>
<symbol id="font_2_b">
<path d="M .14200002 .43100003 L .14200002 .54700008 C .14200002 .63500007 .19 .683 .23400003 .683 C .23700002 .683 .25200004 .683 .26700003 .67600008 C .25500003 .67200008 .23700002 .65900006 .23700002 .634 C .23700002 .611 .25300003 .591 .28000004 .591 C .30900003 .591 .32400004 .611 .32400004 .63500007 C .32400004 .67200008 .28700004 .70500007 .23400003 .70500007 C .164 .70500007 .079 .652 .079 .546 L .079 .43100003 L 0 .43100003 L 0 .4 L .079 .4 L .079 .076000008 C .079 .031000002 .068 .031000002 .001000002 .031000002 L .001000002 0 C .040000008 .001 .087000008 .003 .115 .003 C .155 .003 .20200002 .003 .24200002 0 L .24200002 .031000002 L .22100002 .031000002 C .14700002 .031000002 .14500001 .042000005 .14500001 .078 L .14500001 .4 L .25900004 .4 L .25900004 .43100003 L .14200002 .43100003 Z "/>
</symbol>
<use xlink:href="#font_2_6" transform="matrix(9.9626,0,0,-9.9626,24.837693,11.011185)"/>
<use xlink:href="#font_2_10" transform="matrix(9.9626,0,0,-9.9626,32.100427,10.901596)"/>
<use xlink:href="#font_2_d" transform="matrix(9.9626,0,0,-9.9626,37.13154,10.792007)"/>
<use xlink:href="#font_2_d" transform="matrix(9.9626,0,0,-9.9626,39.901144,10.792007)"/>
<use xlink:href="#font_2_a" transform="matrix(9.9626,0,0,-9.9626,42.620935,10.901596)"/>
<use xlink:href="#font_2_1" transform="matrix(9.9626,0,0,-9.9626,47.622159,6.8567807)"/>
<use xlink:href="#font_2_12" transform="matrix(9.9626,0,0,-9.9626,49.863744,10.901596)"/>
<use xlink:href="#font_2_7" transform="matrix(9.9626,0,0,-9.9626,57.136445,10.792007)"/>
<use xlink:href="#font_2_c" transform="matrix(9.9626,0,0,-9.9626,64.28959,10.792007)"/>
<use xlink:href="#font_2_a" transform="matrix(9.9626,0,0,-9.9626,69.78895,10.901596)"/>
<use xlink:href="#font_2_10" transform="matrix(9.9626,0,0,-9.9626,74.21234,10.901596)"/>
<use xlink:href="#font_2_11" transform="matrix(9.9626,0,0,-9.9626,79.19364,10.792007)"/>
<use xlink:href="#font_2_a" transform="matrix(9.9626,0,0,-9.9626,83.09898,10.901596)"/>
<use xlink:href="#font_2_e" transform="matrix(9.9626,0,0,-9.9626,87.562229,10.792007)"/>
<use xlink:href="#font_2_b" transform="matrix(9.9626,0,0,-9.9626,99.19854,10.792007)"/>
<use xlink:href="#font_2_10" transform="matrix(9.9626,0,0,-9.9626,102.19728,10.901596)"/>
<use xlink:href="#font_2_11" transform="matrix(9.9626,0,0,-9.9626,107.17858,10.792007)"/>
<use xlink:href="#font_0_5" transform="matrix(9.9626,0,0,-9.9626,114.653018,12.834341)"/>
<use xlink:href="#font_2_2" transform="matrix(9.9626,0,0,-9.9626,121.061298,13.282658)"/>
<use xlink:href="#font_0_6" transform="matrix(9.9626,0,0,-9.9626,124.238918,10.901596)"/>
<symbol id="font_2_f">
<path d="M .07800001 .344 L .07800001 .076000008 C .07800001 .031000002 .067 .031000002 0 .031000002 L 0 0 C .035 .001 .08600001 .003 .113000009 .003 C .139 .003 .191 .001 .225 0 L .225 .031000002 C .158 .031000002 .147 .031000002 .147 .076000008 L .147 .26000003 C .147 .36400003 .218 .42000003 .282 .42000003 C .345 .42000003 .356 .36600004 .356 .30900003 L .356 .076000008 C .356 .031000002 .345 .031000002 .278 .031000002 L .278 0 C .31300003 .001 .36400003 .003 .391 .003 C .41700004 .003 .46900005 .001 .503 0 L .503 .031000002 C .451 .031000002 .42600004 .031000002 .425 .061000006 L .425 .252 C .425 .33800004 .425 .36900003 .39400003 .40500004 C .38000003 .42200003 .347 .44200004 .289 .44200004 C .216 .44200004 .169 .39900003 .141 .337 L .141 .44200004 L 0 .43100003 L 0 .4 C .07000001 .4 .07800001 .393 .07800001 .344 Z "/>
</symbol>
<symbol id="font_2_8">
<path d="M .13700003 0 L .13700003 .03999999 L .04 .03999999 L .04 .96000006 L .13700003 .96000006 L .13700003 1 L 0 1 L 0 0 L .13700003 0 Z "/>
</symbol>
<use xlink:href="#font_2_3" transform="matrix(9.9626,0,0,-9.9626,130.21187,13.282658)"/>
<use xlink:href="#font_2_10" transform="matrix(9.9626,0,0,-9.9626,137.11595,10.901596)"/>
<use xlink:href="#font_2_f" transform="matrix(9.9626,0,0,-9.9626,142.1371,10.792007)"/>
<use xlink:href="#font_2_8" transform="matrix(9.9626,0,0,-9.9626,151.8606,13.282658)"/>
<symbol id="font_0_1">
<path d="M .117000009 .194 C .117000009 .26 .092 .29900003 .05300001 .29900003 C .020000004 .29900003 0 .274 0 .246 C 0 .21900001 .020000004 .193 .05300001 .193 C .065000008 .193 .078 .197 .08800001 .206 C .091 .208 .092 .209 .093 .209 C .094000007 .209 .095000009 .208 .095000009 .194 C .095000009 .12 .06000001 .060000004 .027000003 .026999996 C .016000003 .016000003 .016000003 .013999999 .016000003 .0109999929 C .016000003 .003999993 .021000006 0 .026 0 C .037 0 .117000009 .077 .117000009 .194 Z "/>
</symbol>
<use xlink:href="#font_0_2" transform="matrix(9.9626,0,0,-9.9626,153.84149,10.901596)"/>
<use xlink:href="#font_0_1" transform="matrix(9.9626,0,0,-9.9626,159.56999,12.714789)"/>
<use xlink:href="#font_0_3" transform="matrix(9.9626,0,0,-9.9626,163.61483,10.901596)"/>
<symbol id="font_2_9">
<path d="M .13700001 1 L 0 1 L 0 .96000006 L .097 .96000006 L .097 .03999999 L 0 .03999999 L 0 0 L .13700001 0 L .13700001 1 Z "/>
</symbol>
<use xlink:href="#font_2_9" transform="matrix(9.9626,0,0,-9.9626,167.63217,13.282658)"/>
</svg>
